<?xml version="1.0" standalone="no"?>
<!DOCTYPE svg PUBLIC "-//W3C//DTD SVG 1.1//EN" "http://www.w3.org/Graphics/SVG/1.1/DTD/svg11.dtd">
<svg xmlns="http://www.w3.org/2000/svg" width="1007" height="1588" viewBox="0 0 1007 1588" fill="none">
<path d="M339.609 431.907C293.963 475.268 265.5 536.555 265.5 604.487C265.5 637.743 272.046 691.217 308.999 741.682C328.049 767.698 348.233 788.161 366.205 806.381C373.548 813.826 380.522 820.896 386.899 827.818C408.967 851.774 424 874.028 424 904.5C424 919.902 421.579 931.581 416.963 941.828C412.337 952.098 405.453 961.055 396.331 970.961C391.364 976.354 385.735 982.024 379.481 988.323C362.815 1005.11 341.71 1026.37 316.867 1058.78C283.669 1102.1 265.5 1150.66 265.5 1206.49C265.5 1274.42 293.963 1335.71 339.609 1379.07C143.397 1311.17 2.5 1124.78 2.5 905.487C2.5 686.191 143.397 499.799 339.609 431.907Z" fill="white" stroke="#F4D1D1" stroke-width="4"/>
<path d="M740 604.487C740 533.735 708.866 470.255 659.55 427C861.217 492.514 1007 681.976 1007 905.487C1007 1129 861.217 1318.46 659.55 1383.97C708.866 1340.72 740 1277.24 740 1206.49C740 1151.14 722 1103 689.046 1060C620.845 971.009 581.5 967 581.5 904.5C581.5 842 643.385 813.567 696.888 740.5C733.5 690.5 740 637.5 740 604.487Z" fill="#FFDB59"/>
<circle cx="438" cy="677" r="33" fill="white" stroke="#F4D1D1" stroke-width="4"/>
<path d="M507.391 805.488L507.354 805.615L507.335 805.746L485.943 950.115C485.503 931.252 484.723 914.116 480.546 898.082C474.658 875.483 462.054 855.081 434.597 834.566C384.043 796.794 353.224 769.76 338.397 718.43C330.995 692.805 331.662 658.025 334.24 629.46C335.49 615.615 337.182 603.297 338.591 594.292C342.736 635.067 352.5 671.25 368.682 696.277C377.807 710.389 389.031 721.043 402.523 726.9C416.039 732.767 431.646 733.739 449.361 728.798C483.895 719.166 502.698 689.414 507.66 654.087C511.93 623.685 506.019 588.904 490.957 558.484C532.588 604.613 544.856 638.806 543.304 673.386C542.457 692.24 537.499 711.339 530.713 732.745C528.376 740.116 525.818 747.773 523.143 755.781C518.077 770.945 512.591 787.367 507.391 805.488Z" fill="white" stroke="#F4D1D1" stroke-width="4"/>
<path d="M557.988 869.5C487.5 956.5 537.488 1083 591 1156.5C591 1156.5 496.834 1083.12 484 1006C470.851 927 489.588 915.772 474 865C454.811 802.5 435.5 799 439.488 716.5C445.511 653.14 502.488 591 502.488 591C467.617 678.391 466.571 759.592 537.488 772C606.064 783.999 653.815 699.452 645 622C691.5 760.5 628.476 782.5 557.988 869.5Z" fill="#FFDB59"/>
<circle cx="546" cy="717" r="31" fill="#FFDB59"/>
<g clip-path="url(#clip0_115_41)">
<path d="M267.5 604.487C267.5 533.735 298.634 470.255 347.95 427C146.283 492.514 0.5 681.976 0.5 905.487C0.5 1129 146.283 1318.46 347.95 1383.97C298.634 1340.72 267.5 1277.24 267.5 1206.49C267.5 1151.14 285.5 1103 318.454 1060C386.655 971.009 426 967 426 904.5C426 842 364.115 813.567 310.612 740.5C274 690.5 267.5 637.5 267.5 604.487Z" fill="#D52626"/>
<path d="M740 604.487C740 533.735 708.866 470.255 659.55 427C861.217 492.514 1007 681.976 1007 905.487C1007 1129 861.217 1318.46 659.55 1383.97C708.866 1340.72 740 1277.24 740 1206.49C740 1151.14 722 1103 689.046 1060C620.845 971.009 581.5 967 581.5 904.5C581.5 842 643.385 813.567 696.888 740.5C733.5 690.5 740 637.5 740 604.487Z" fill="#D52626"/>
<path d="M899.697 685.993L898.497 676L892.901 677.199L887.705 681.996L886.505 689.591L876.512 693.988L871.715 691.19L868.118 695.587L870.916 697.985L871.715 701.183L868.118 704.381V711.177L859.323 713.175L857.325 715.574L855.726 719.971L850.929 726.766L842.535 719.971L838.537 726.766L829.343 729.964L828.544 732.762L830.143 734.361L826.945 739.558L832.541 747.552L830.143 749.551L826.945 748.352L824.147 749.551L820.949 747.552L814.154 748.352L811.755 747.552L810.156 749.551H799.363L796.565 744.754L792.968 743.555L789.37 747.552L786.972 744.754L781.775 743.555L780.976 739.558L777.778 738.358V743.555L774.98 747.552L780.176 754.748L778.577 760.744L780.976 766.34L781.775 772.736L774.98 770.737L769.783 774.734L766.585 770.737L760.589 772.736H754.193V778.332L747.398 782.329L744.2 778.332L739.403 773.535H727.411L730.209 777.532L726.612 781.13L729.41 785.527L719.816 786.726L707.824 788.325L707.025 791.523V796.72L701.828 794.321L695.832 792.323L691.835 796.72H683.84V801.916L689.037 805.913L685.039 808.312L686.239 813.109L694.233 814.308L698.231 824.301H691.835L687.438 829.498H693.434L691.835 835.894L687.438 839.491L688.637 843.488L684.64 846.686L677.045 843.089L674.247 846.686L669.45 850.284L668.65 854.681H671.449H677.045L680.243 856.28L682.641 856.68L683.84 854.681L689.836 855.48V865.474L689.037 869.871L692.634 873.868V879.465L689.037 880.664L691.035 891.057L689.037 902.249H684.64L675.046 905.847L674.247 911.843L677.844 915.441L682.641 913.842L687.438 917.439L686.239 924.235L689.037 929.831L692.634 931.03L694.633 937.826L695.832 945.82L699.83 952.216L701.029 959.411L704.626 967.406L708.624 973.002L709.423 978.199L713.021 986.593L714.22 995.387V1006.58L717.418 1017.37L720.616 1027.37L721.415 1033.36L724.213 1042.16L727.411 1050.95H729.81L731.009 1047.35L737.005 1048.15L739.403 1055.35H744.2L746.598 1058.94H750.996V1061.74H755.792V1066.14L759.39 1069.34L760.989 1073.74L764.187 1075.73L764.986 1080.53L769.383 1081.33L770.583 1084.93H772.581V1088.13L778.577 1091.32L782.974 1096.12H788.97L793.367 1101.72L799.363 1102.52L803.76 1104.11L809.756 1102.52L810.956 1108.51L814.953 1108.11L818.151 1112.11H821.748L825.746 1116.91L830.543 1120.5L832.941 1122.9L838.138 1119.7L840.536 1122.9L843.334 1126.5L847.331 1124.9L852.128 1125.7L856.525 1124.9L860.922 1126.5L864.52 1114.11H869.717L870.916 1112.11L879.31 1118.91V1114.11H886.106L887.705 1111.31L893.301 1115.31H898.497L901.295 1112.11V1106.11L903.294 1103.32L916.086 1102.12L922.481 1096.92V1092.92L918.884 1087.73H903.294V1083.73L909.69 1080.13L912.888 1076.53L913.288 1070.14L908.491 1063.74L910.889 1056.95L918.884 1056.15L923.681 1054.55V1047.75L925.679 1043.36L929.277 1040.56L936.072 1045.75L940.469 1042.56L944.467 1045.75L947.265 1044.15L948.464 1039.76L951.662 1038.96L954.86 1034.16L957.258 1036.16L958.857 1034.16L961.655 1030.16L963.654 1025.77L966.452 1021.37L968.85 1017.37V1010.18H963.654L958.857 1008.98L957.258 1003.78L955.659 1002.18V996.587L957.258 994.988V990.191L947.265 990.591L944.467 987.792H937.272V984.994L939.27 977.399V972.602H934.873L927.678 974.601V971.403L925.679 969.804L923.281 967.406H920.083V972.602L913.288 975.401L911.689 978.998H906.092L901.295 980.597L895.299 984.195L894.5 975.401L893.301 969.005L892.501 965.407L887.705 961.81L889.303 958.612L890.103 954.614L890.902 950.217L894.9 952.216L898.897 953.815V946.22L894.9 942.622L892.501 940.624L889.303 942.223L887.705 944.221L883.707 941.423H874.114L873.314 943.422L872.115 947.819L870.516 950.217L866.918 947.819L862.122 946.22L861.322 942.622L856.525 941.423V938.625L862.122 934.228V931.43L856.525 932.229L854.527 928.632L850.529 926.633L849.33 920.237L851.728 915.84L850.529 911.043H853.727L855.726 907.046V899.851L850.529 901.05L848.93 899.051L850.529 896.653V892.256L852.928 891.457L857.325 895.454H864.52H867.718L869.717 897.852L872.914 895.454L874.913 891.057L876.112 886.66V880.264L872.914 877.066L868.917 875.067L867.718 865.074V859.478L869.317 855.081L872.914 854.681L870.116 851.083L869.717 841.09L877.711 836.693L886.505 836.293L893.301 837.492H900.096L900.496 833.095L898.897 827.899V821.103V815.907L901.695 813.508L905.293 812.309L903.294 810.311L898.497 808.312L888.904 807.912L882.508 801.117L885.706 800.717H890.503L893.301 798.319L896.499 792.722L894.9 782.329L898.098 780.331L896.499 775.534L898.098 770.337V758.745L890.902 755.147L895.699 749.551L898.897 742.356L912.888 733.961L906.092 730.764L898.497 729.564L897.298 721.969L905.693 719.171L904.493 716.773L900.896 715.174L910.889 703.582L902.495 698.385L907.691 697.586V691.989L904.493 688.791L904.094 681.996L899.697 685.993Z" stroke="#F4D1D1" stroke-width="4"/>
<path d="M507.391 805.488L507.354 805.615L507.335 805.746L485.931 950.195C485.471 931.332 484.655 914.228 480.449 898.206C474.529 875.653 461.929 855.255 434.607 834.573C427.727 829.366 421.554 824.832 415.944 820.713C400.158 809.121 388.839 800.809 378.831 789.987C365.357 775.415 354.27 756.259 338.338 718.255C327.593 688.82 328.255 654.118 331.674 626.616C333.381 612.886 335.767 601.011 337.725 592.571C337.894 591.845 338.059 591.144 338.22 590.471C342.134 632.803 351.996 670.47 368.682 696.277C377.807 710.389 389.032 721.043 402.523 726.9C416.039 732.767 431.646 733.739 449.361 728.798C483.895 719.166 502.699 689.414 507.66 654.087C511.93 623.685 506.019 588.904 490.957 558.484C532.588 604.613 544.856 638.806 543.304 673.386C542.458 692.24 537.499 711.339 530.713 732.745C528.376 740.116 525.818 747.773 523.143 755.781C518.077 770.945 512.591 787.367 507.391 805.488Z" fill="#D52626" stroke="#F4D1D1" stroke-width="4"/>
<path d="M557.989 869.5C487.5 956.5 537.489 1083 591.001 1156.5C591.001 1156.5 496.835 1083.12 484.001 1006C470.852 927 489.589 915.772 474 865C454.812 802.5 435.501 799 439.489 716.5C445.512 653.14 502.489 591 502.489 591C467.618 678.391 466.572 759.592 537.489 772C606.065 783.999 653.816 699.452 645.001 622C691.501 760.5 628.477 782.5 557.989 869.5Z" fill="#D52626"/>
</g>
<path d="M27 849.423V847.803C27.2903 847.006 27.8708 846.189 27.8033 845.42C27.6413 843.509 28.4784 842.531 30.0716 841.606C33.2579 839.756 35.4721 837.198 35.0941 833.093C35.0063 832.094 35.7691 831.068 36.0999 829.995C36.4709 829.043 36.6852 828.038 36.7345 827.018C36.6061 825.249 36.3397 823.493 35.9379 821.766C35.5193 819.842 34.9185 817.958 34.4257 816.048C34.2609 815.381 34.1392 814.705 34.0612 814.023C33.9593 812.2 33.761 810.383 33.4671 808.581C33.1229 807.036 34.527 806.334 34.716 805.098C34.9963 805.13 35.2685 805.212 35.5193 805.341C37.6458 806.928 39.752 808.541 42.0472 810.289C41.9171 808.982 41.8631 807.668 41.8852 806.354C41.9177 805.675 42.2045 805.034 42.6886 804.558C44.0049 803.498 43.6674 803.66 43.3029 802.094C42.8236 800.069 41.4127 800.271 40.0761 799.887C39.2414 799.547 38.443 799.124 37.6931 798.624C37.5576 798.89 37.333 799.101 37.0585 799.218C36.6602 799.326 36.1539 799.056 35.7084 798.948C35.7556 799.353 35.8974 799.401 36.0256 799.475C36.4712 799.752 36.9167 800.042 37.3758 800.332C36.883 800.933 36.5589 801.682 35.4518 801.217C33.6967 800.541 32.7516 799.117 32.9406 796.673C33.0373 796.247 33.2063 795.841 33.4401 795.472C33.9316 795.742 34.3855 796.076 34.7903 796.464C34.9079 796.698 34.9321 796.969 34.8578 797.22C35.1143 796.997 35.6679 796.255 35.9109 796.343C37.3555 796.876 38.3344 796.201 39.2457 795.303C40.4539 794.124 42.0381 793.407 43.7214 793.278C44.7977 793.109 45.851 792.817 46.8605 792.407C48.1161 791.961 49.3042 791.32 50.5666 790.908C55.2156 789.405 59.8848 787.936 64.5742 786.5C66.1674 786.014 67.7943 785.636 69.4145 785.251C71.7097 784.704 74.0117 784.205 76.3137 783.692C78.4604 783.212 80.6138 782.342 82.7605 782.342C87.2092 782.402 90.5643 780.532 93.3253 777.326C94.6755 775.733 95.8568 773.951 97.099 772.27C97.9915 770.946 99.1993 769.866 100.614 769.126C102.028 768.386 103.604 768.009 105.2 768.03C108.892 768.03 112.214 766.97 114.921 764.344C117.406 761.997 120.469 760.35 123.798 759.572C129.59 758.086 135.375 756.588 141.181 755.17C142.449 754.939 143.733 754.806 145.022 754.772C146.284 754.657 147.547 754.569 148.809 754.475H152.724C155.735 756.453 158.8 758.316 161.723 760.449C163.311 761.708 164.749 763.144 166.01 764.729C166.442 765.235 166.354 766.181 166.509 766.93C165.159 765.823 164.417 764.425 163.283 763.501C161.157 761.839 158.946 760.289 156.66 758.856C156.168 758.657 155.645 758.547 155.114 758.532C155.114 759.207 154.939 760.274 155.215 760.415C157.241 761.428 156.35 763.879 157.855 765.35C158.942 766.41 158.982 768.726 159.09 770.541C159.246 772.938 159.171 775.267 162.067 776.131C162.209 776.172 162.297 776.367 162.439 776.435C164.322 777.353 166.131 778.771 168.109 779.061C172.045 779.648 176.149 779.776 179.963 778.44C183.19 777.319 186.201 775.584 189.32 774.153C189.84 773.963 190.375 773.819 190.92 773.721C190.616 774.227 190.427 774.916 189.981 775.199C188.501 776.188 186.938 777.046 185.31 777.765C183.494 778.507 181.55 778.912 179.687 779.533C179.275 779.668 178.607 780.208 178.654 780.364C178.91 781.241 179.167 782.578 179.781 782.807C181.671 783.523 183.447 782.976 184.918 781.457C185.594 780.748 186.552 779.837 187.396 779.817C189.286 779.783 190.353 778.771 191.446 777.508C191.996 776.773 192.648 776.12 193.384 775.571C194.005 775.124 194.773 774.934 195.53 775.037C201.734 776.982 208.188 777.063 214.554 777.684C220.92 778.305 227.481 778.507 233.908 779.223C240.024 779.898 246.059 779.533 252.135 778.973C260.722 778.183 269.322 777.501 277.909 776.705C278.741 776.611 279.522 776.254 280.137 775.685C281.487 774.335 284.72 774.194 286.124 775.598C287.036 776.516 287.913 777.468 288.825 778.372C289.046 778.514 289.29 778.615 289.547 778.669C290.573 779.054 291.572 779.439 292.612 779.837C293.56 780.175 294.491 780.56 295.4 780.991C296.45 781.45 297.424 782.064 298.289 782.814C299.253 783.828 300.082 784.962 300.753 786.19C301.982 788.356 303.332 790.49 301.604 793.082C301.314 793.521 301.604 794.473 301.847 795.107C302.556 796.991 303.973 798.84 303.987 800.71C303.987 803.046 304.662 805.112 305.121 807.299C306.647 814.725 309.934 821.475 313.222 828.192C314.113 830.008 315.402 831.622 316.421 833.377C316.752 833.951 317.144 834.835 316.928 835.321C315.834 837.839 317.016 839.925 317.853 842.146C318.237 843.165 318.642 844.401 318.413 845.393C317.976 847.557 318.073 849.796 318.696 851.914C319.372 854.614 319.608 857.369 317.346 859.644C315.389 861.628 313.33 863.404 310.508 864.038C308.219 864.551 306.12 865.638 304.878 867.596C302.488 871.369 300.328 875.285 298.188 879.207C297.574 880.328 298.343 882.245 299.174 882.326C300.463 882.461 301.833 882.326 303.021 882.744C304.588 883.284 306.505 883.143 307.484 885.148C307.763 885.737 308.211 886.23 308.771 886.565C309.331 886.899 309.978 887.059 310.629 887.024C311.056 887.068 311.451 887.27 311.737 887.591C313.384 889.238 313.64 892.992 312.587 895.125C311.723 896.894 311.237 898.865 312.02 900.836C312.695 902.402 312.466 903.584 311.068 904.677C310.623 905.015 310.515 905.94 310.474 906.608C310.386 907.857 310.434 909.119 310.474 910.375C310.515 912.157 310.238 914.007 312.094 915.256C313.066 915.931 314.288 916.714 314.619 917.706C315.294 919.731 316.313 921.817 315.011 924.166C314.126 925.753 314.68 926.435 316.313 927.339C316.867 927.65 317.596 928.291 317.603 928.791C317.603 930.323 318.534 931.126 319.574 931.93C320.823 932.888 322.126 933.806 321.971 935.683C321.977 935.842 322.019 935.997 322.095 936.136C322.172 936.276 322.279 936.396 322.409 936.486C324.029 937.344 324.009 939.004 324.57 940.442C325.629 943.197 326.352 946.302 329.774 947.348C330.2 947.477 330.53 947.929 330.908 948.233V949.529C329.437 949.529 328.073 949.833 327.324 951.237C327.094 951.662 327.061 952.654 327.277 952.769C328.667 953.532 328.147 955.935 330.173 956.144C330.267 956.473 330.301 956.816 330.274 957.157C330.274 957.515 330.004 957.94 330.119 958.224C331.28 960.978 330.571 963.773 330.24 966.513C329.835 969.923 328.147 971.327 324.664 971.691C323.915 971.765 323.165 971.88 322.423 972.015C320.904 972.292 319.682 972.873 319.324 974.621C319.114 975.222 318.759 975.762 318.291 976.194C316.617 978.044 314.727 979.724 313.249 981.716C309.671 986.543 305.762 991.126 302.603 996.264C300.24 1000.12 297.749 1003.89 295.278 1007.68C294.725 1008.52 294.003 1009.25 293.368 1010.05C292.849 1010.66 292.363 1011.3 291.91 1011.96C290.924 1013.49 289.925 1015.02 289.081 1016.64C288.916 1016.94 288.814 1017.28 288.783 1017.63C288.751 1017.98 288.791 1018.33 288.899 1018.66C290.723 1022.46 291.601 1026.65 291.458 1030.86C291.458 1031.6 291.12 1032.37 291.214 1033.08C291.314 1033.76 291.579 1034.41 291.986 1034.96C292.394 1035.52 292.931 1035.96 293.55 1036.26C295.967 1037.61 297.223 1041.1 296.25 1043.53H294.954C294.382 1042.91 293.666 1042.46 292.871 1042.19C292.077 1041.93 291.229 1041.87 290.404 1042.01C290.092 1042.07 289.771 1042.05 289.465 1041.97C289.158 1041.89 288.873 1041.74 288.629 1041.54C287.427 1039.83 285.686 1039.96 283.971 1039.88C282.54 1039.81 281.237 1039.6 280.292 1038.25C279.988 1037.81 279.009 1037.85 278.341 1037.67C277.463 1037.43 276.221 1037.46 275.809 1036.88C275.635 1036.57 275.363 1036.33 275.036 1036.19C274.708 1036.05 274.344 1036.02 274 1036.11C272.144 1036.27 269.275 1034.76 269.012 1033.46C268.336 1029.98 265.832 1028.26 262.936 1026.91C262.676 1026.84 262.403 1026.83 262.139 1026.89C261.875 1026.94 261.628 1027.05 261.417 1027.22C260.654 1027.93 260.317 1027.9 259.736 1026.99C258.17 1024.49 255.962 1023.69 253.208 1024.64C252.249 1024.99 251.23 1025.15 250.211 1025.09C249.191 1025.04 248.193 1024.78 247.274 1024.34C246.242 1023.88 244.412 1023.77 243.69 1024.37C242.245 1025.6 241.172 1025.72 239.687 1024.72C239.455 1024.62 239.203 1024.57 238.95 1024.58C238.696 1024.59 238.447 1024.65 238.222 1024.76C237.999 1024.89 238.087 1025.6 238.06 1026.05C238.033 1026.51 238.242 1027.24 237.985 1027.53C237.032 1028.6 235.986 1029.58 234.86 1030.47C234.608 1030.66 234.315 1030.8 234.004 1030.87C233.693 1030.95 233.37 1030.95 233.057 1030.88C230.911 1029.96 228.271 1029.69 227.387 1026.9C227.279 1026.55 226.712 1026.06 226.422 1026.12C225.091 1026.29 223.796 1026.66 222.58 1027.23C222.15 1027.54 221.632 1027.7 221.102 1027.69C220.572 1027.69 220.059 1027.51 219.637 1027.19C218.997 1026.74 218.248 1026.48 217.47 1026.43C216.606 1026.43 215.749 1026.92 214.871 1027.03C213.994 1027.13 213.872 1027.44 214.108 1028.19C214.662 1029.93 214.439 1030.09 212.556 1029.85C211.698 1029.75 210.328 1029.66 209.997 1030.13C208.775 1031.88 206.845 1033.27 206.851 1035.76C206.851 1037.78 206.541 1037.94 204.745 1036.91C204.513 1036.78 204.288 1036.64 204.07 1036.48C202.565 1035.42 201.086 1035.13 199.419 1036.26C198.732 1036.67 197.926 1036.82 197.137 1036.7C196.118 1036.51 195.051 1035.53 195.855 1034.63C197.333 1032.99 197.205 1031.52 196.334 1029.79C196.235 1029.48 196.191 1029.15 196.206 1028.83C196.017 1026.67 195.956 1026.69 193.721 1026.75C192.952 1026.75 191.831 1026.55 191.446 1026.03C189.954 1023.98 188.071 1022.07 187.983 1019.28C187.949 1018.96 187.848 1018.65 187.686 1018.37C186.728 1016.45 186.14 1016.35 184.635 1017.88C183.656 1018.86 182.758 1020.08 181.57 1020.69C179.545 1021.73 178.195 1023.01 177.736 1025.32C177.439 1026.88 176.318 1027.44 174.691 1027.22C173.783 1027.11 172.862 1027.19 171.991 1027.47C170.371 1027.96 169.804 1027.62 169.763 1025.89C169.763 1025.51 169.763 1025.13 169.763 1024.76C169.635 1022.73 169.351 1022.41 167.346 1022.18C166.912 1022.16 166.498 1021.99 166.183 1021.69C165.868 1021.39 165.675 1020.99 165.639 1020.55C165.333 1018.65 164.92 1016.76 164.403 1014.9C164.262 1014.53 164.041 1014.19 163.755 1013.92C163.469 1013.64 163.126 1013.43 162.749 1013.3C159.799 1012.72 158.024 1011.01 157.416 1008.15C157.053 1006.3 156.827 1004.43 156.741 1002.55C156.701 1001.75 156.552 1001.57 155.749 1001.57C154.957 1001.48 154.176 1001.31 153.42 1001.06C152.144 1000.79 150.821 1000.21 149.606 1000.38C148.546 1000.52 147.965 1000.5 147.283 999.659C146.602 998.822 145.636 997.499 144.846 997.533C142.983 997.607 142.322 996.736 141.849 995.271C141.775 995.011 141.609 994.786 141.383 994.637C141.054 994.526 140.711 994.46 140.364 994.441C140.432 994.718 140.513 994.995 140.567 995.271C140.654 995.703 140.897 996.21 140.749 996.534C140.612 996.684 140.439 996.796 140.246 996.86C140.054 996.924 139.848 996.937 139.648 996.898C138.46 996.426 137.772 997.263 136.86 997.668C136.098 998.005 134.693 998.201 134.275 997.776C132.969 996.402 131.835 994.874 130.9 993.226C130.427 992.429 130.15 991.727 129.084 991.741C128.017 991.754 126.201 990.31 126.167 989.263C126.205 989.023 126.293 988.794 126.427 988.591C126.561 988.388 126.737 988.217 126.944 988.089C127.396 987.916 127.877 987.829 128.361 987.832C130.353 987.515 131.271 986.367 131.143 984.369C131.143 983.998 131.143 983.613 131.082 983.242C131.008 982.708 130.886 982.175 130.792 981.642C130.293 981.777 129.821 981.993 129.394 982.283C128.965 982.689 128.451 982.996 127.89 983.183C127.329 983.369 126.734 983.431 126.147 983.363C124.93 983.263 123.705 983.403 122.542 983.775C121.557 984.16 121.246 984.065 121.192 983.1C121.138 982.134 120.787 982.107 120.132 982.729C119.803 982.954 119.441 983.127 119.059 983.242C118.897 982.87 118.586 982.492 118.6 982.134C118.654 980.953 118.006 980.629 117.007 980.292C116.109 979.883 115.276 979.344 114.536 978.692C113.746 978.104 113.071 977.341 112.234 976.828C110.364 975.681 108.447 974.621 106.509 973.588C106.325 973.506 106.124 973.468 105.922 973.478C105.721 973.487 105.524 973.543 105.348 973.642C105.138 973.792 104.961 973.983 104.827 974.204C104.693 974.424 104.605 974.67 104.568 974.925C104.532 975.181 104.547 975.441 104.614 975.691C104.681 975.94 104.797 976.173 104.957 976.376C105.375 977.051 105.585 977.848 105.956 978.55C106.244 979.215 106.649 979.823 107.151 980.346C107.825 980.841 108.33 981.534 108.594 982.328C108.859 983.123 108.871 983.979 108.629 984.781C108.373 985.638 107.954 985.996 107.137 985.226C106.894 985.004 106.307 985.064 105.902 985.132C105.497 985.199 105.004 985.537 104.552 985.598C103.851 985.67 103.18 985.915 102.598 986.31C102.016 986.706 101.541 987.241 101.217 987.866C100.804 988.685 100.261 989.433 99.6102 990.08C98.987 990.646 98.1944 990.99 97.3555 991.059C95.5463 991.059 92.9541 988.271 93.0216 986.455C93.0823 984.923 92.3465 984.011 91.3407 982.999C89.9568 981.615 88.4514 980.143 87.6885 978.408C87.0675 976.997 86.4397 976.072 85.0625 975.451C82.9428 974.499 82.4838 972.204 84.1579 970.557C85.079 969.746 86.1437 969.114 87.297 968.694C88.6471 968.12 90.3078 965.946 90.0715 964.704C89.7947 963.26 86.4397 960.532 84.9883 960.654C84.5765 960.701 83.8542 961.174 83.8677 961.423C83.9554 963.53 82.9091 962.443 82.2407 961.997C80.3573 960.742 80.4113 960.742 78.9802 962.551C78.5209 962.949 77.9985 963.269 77.4343 963.496C77.1407 963.003 76.9309 962.464 76.8132 961.903C76.8132 960.883 76.3474 960.343 75.4631 960.748C74.0319 961.383 73.6741 960.573 73.3096 959.499C73.1117 958.717 72.7806 957.975 72.3308 957.305C71.9527 956.853 71.0819 956.354 70.6228 956.495C69.1579 956.941 67.9766 956.421 66.7547 955.82C65.1345 955.071 63.5481 954.261 61.9077 953.572C61.3809 953.359 60.7962 953.335 60.2538 953.505C59.1669 953.93 58.8497 953.566 58.6269 952.513C58.4941 951.632 58.1043 950.81 57.5063 950.15C56.0751 948.847 55.4203 947.531 56.1561 945.586C56.2578 945.359 56.3015 945.11 56.2832 944.862C56.265 944.613 56.1854 944.373 56.0516 944.163C55.9178 943.953 55.734 943.779 55.5166 943.658C55.2992 943.536 55.055 943.471 54.806 943.467C52.7133 943.23 50.4991 943.818 48.5886 942.366C48.3794 942.211 47.7718 942.589 47.3465 942.717C47.4699 943.011 47.5714 943.313 47.6503 943.622C47.7987 944.255 47.8779 944.902 47.8866 945.553C47.8616 946.561 47.7372 947.565 47.5153 948.55C47.414 948.982 46.9212 949.589 46.5634 949.623C45.4387 949.705 44.3087 949.682 43.1881 949.556C41.5544 949.407 41.0954 948.685 41.703 947.153C42.0125 946.606 42.3889 946.1 42.8236 945.647C43.4041 944.864 44.221 944.155 44.5382 943.271C46.0639 939.065 47.414 934.846 48.8114 930.58C48.9633 930.234 49.0634 929.868 49.1084 929.493C49.1084 928.872 49.1827 928.068 48.8452 927.67C47.2115 925.766 47.279 923.478 47.36 921.25C47.4135 920.774 47.3239 920.292 47.1027 919.866C46.8815 919.441 46.5387 919.091 46.1179 918.86C44.599 917.888 43.0733 916.943 41.5207 916.018C39.833 915.006 39.698 914.25 41.0211 912.738C42.243 911.333 42.2093 908.485 40.7714 907.465C40.1644 907.07 39.6705 906.523 39.3379 905.88C39.0054 905.236 38.8457 904.517 38.8744 903.793C38.8554 903.205 38.6832 902.633 38.3749 902.132C37.9874 901.639 37.8098 901.014 37.8806 900.391C37.9513 899.768 38.2648 899.198 38.7529 898.804C40.4001 897.137 41.8717 895.314 41.9325 892.803C41.9865 890.602 42.9653 888.32 41.2574 886.228C40.9199 885.802 41.0211 884.979 41.0279 884.344C41.0279 883.372 41.1359 882.4 41.2439 881.435C41.3857 880.085 41.0009 879.126 39.6913 878.566C39.1356 878.345 38.6617 877.958 38.3343 877.458C38.0068 876.958 37.8418 876.368 37.8618 875.771C37.7968 875.022 37.6051 874.289 37.2948 873.604C37.0303 873.008 36.9314 872.352 37.0086 871.704C37.0858 871.057 37.3363 870.442 37.7336 869.925C38.1656 869.311 38.6854 868.757 39.1445 868.156C39.5775 867.59 39.8929 866.943 40.0719 866.253C40.2509 865.563 40.2899 864.844 40.1868 864.139C40.0836 863.434 39.8402 862.756 39.4711 862.146C39.1019 861.537 38.6144 861.007 38.0373 860.589C36.9005 859.7 35.8819 858.67 35.0063 857.524C32.6098 854.513 30.5374 851.279 27 849.423Z" stroke="#F4D1D1" stroke-width="4" stroke-miterlimit="10"/>
<g clip-path="url(#clip1_115_41)">
<path d="M899.697 685.993L898.497 676L892.901 677.199L887.705 681.996L886.505 689.591L876.512 693.988L871.715 691.19L868.118 695.587L870.916 697.985L871.715 701.183L868.118 704.381V711.177L859.323 713.175L857.325 715.574L855.726 719.971L850.929 726.766L842.535 719.971L838.537 726.766L829.343 729.964L828.544 732.762L830.143 734.361L826.945 739.558L832.541 747.552L830.143 749.551L826.945 748.352L824.147 749.551L820.949 747.552L814.154 748.352L811.755 747.552L810.156 749.551H799.363L796.565 744.754L792.968 743.555L789.37 747.552L786.972 744.754L781.775 743.555L780.976 739.558L777.778 738.358V743.555L774.98 747.552L780.176 754.748L778.577 760.744L780.976 766.34L781.775 772.736L774.98 770.737L769.783 774.734L766.585 770.737L760.589 772.736H754.193V778.332L747.398 782.329L744.2 778.332L739.403 773.535H727.411L730.209 777.532L726.612 781.13L729.41 785.527L719.816 786.726L707.824 788.325L707.025 791.523V796.72L701.828 794.321L695.832 792.323L691.835 796.72H683.84V801.916L689.037 805.913L685.039 808.312L686.239 813.109L694.233 814.308L698.231 824.301H691.835L687.438 829.498H693.434L691.835 835.894L687.438 839.491L688.637 843.488L684.64 846.686L677.045 843.089L674.247 846.686L669.45 850.284L668.65 854.681H671.449H677.045L680.243 856.28L682.641 856.68L683.84 854.681L689.836 855.48V865.474L689.037 869.871L692.634 873.868V879.465L689.037 880.664L691.035 891.057L689.037 902.249H684.64L675.046 905.847L674.247 911.843L677.844 915.441L682.641 913.842L687.438 917.439L686.239 924.235L689.037 929.831L692.634 931.03L694.633 937.826L695.832 945.82L699.83 952.216L701.029 959.411L704.626 967.406L708.624 973.002L709.423 978.199L713.021 986.593L714.22 995.387V1006.58L717.418 1017.37L720.616 1027.37L721.415 1033.36L724.213 1042.16L727.411 1050.95H729.81L731.009 1047.35L737.005 1048.15L739.403 1055.35H744.2L746.598 1058.94H750.996V1061.74H755.792V1066.14L759.39 1069.34L760.989 1073.74L764.187 1075.73L764.986 1080.53L769.383 1081.33L770.583 1084.93H772.581V1088.13L778.577 1091.32L782.974 1096.12H788.97L793.367 1101.72L799.363 1102.52L803.76 1104.11L809.756 1102.52L810.956 1108.51L814.953 1108.11L818.151 1112.11H821.748L825.746 1116.91L830.543 1120.5L832.941 1122.9L838.138 1119.7L840.536 1122.9L843.334 1126.5L847.331 1124.9L852.128 1125.7L856.525 1124.9L860.922 1126.5L864.52 1114.11H869.717L870.916 1112.11L879.31 1118.91V1114.11H886.106L887.705 1111.31L893.301 1115.31H898.497L901.295 1112.11V1106.11L903.294 1103.32L916.086 1102.12L922.481 1096.92V1092.92L918.884 1087.73H903.294V1083.73L909.69 1080.13L912.888 1076.53L913.288 1070.14L908.491 1063.74L910.889 1056.95L918.884 1056.15L923.681 1054.55V1047.75L925.679 1043.36L929.277 1040.56L936.072 1045.75L940.469 1042.56L944.467 1045.75L947.265 1044.15L948.464 1039.76L951.662 1038.96L954.86 1034.16L957.258 1036.16L958.857 1034.16L961.655 1030.16L963.654 1025.77L966.452 1021.37L968.85 1017.37V1010.18H963.654L958.857 1008.98L957.258 1003.78L955.659 1002.18V996.587L957.258 994.988V990.191L947.265 990.591L944.467 987.792H937.272V984.994L939.27 977.399V972.602H934.873L927.678 974.601V971.403L925.679 969.804L923.281 967.406H920.083V972.602L913.288 975.401L911.689 978.998H906.092L901.295 980.597L895.299 984.195L894.5 975.401L893.301 969.005L892.501 965.407L887.705 961.81L889.303 958.612L890.103 954.614L890.902 950.217L894.9 952.216L898.897 953.815V946.22L894.9 942.622L892.501 940.624L889.303 942.223L887.705 944.221L883.707 941.423H874.114L873.314 943.422L872.115 947.819L870.516 950.217L866.918 947.819L862.122 946.22L861.322 942.622L856.525 941.423V938.625L862.122 934.228V931.43L856.525 932.229L854.527 928.632L850.529 926.633L849.33 920.237L851.728 915.84L850.529 911.043H853.727L855.726 907.046V899.851L850.529 901.05L848.93 899.051L850.529 896.653V892.256L852.928 891.457L857.325 895.454H864.52H867.718L869.717 897.852L872.914 895.454L874.913 891.057L876.112 886.66V880.264L872.914 877.066L868.917 875.067L867.718 865.074V859.478L869.317 855.081L872.914 854.681L870.116 851.083L869.717 841.09L877.711 836.693L886.505 836.293L893.301 837.492H900.096L900.496 833.095L898.897 827.899V821.103V815.907L901.695 813.508L905.293 812.309L903.294 810.311L898.497 808.312L888.904 807.912L882.508 801.117L885.706 800.717H890.503L893.301 798.319L896.499 792.722L894.9 782.329L898.098 780.331L896.499 775.534L898.098 770.337V758.745L890.902 755.147L895.699 749.551L898.897 742.356L912.888 733.961L906.092 730.764L898.497 729.564L897.298 721.969L905.693 719.171L904.493 716.773L900.896 715.174L910.889 703.582L902.495 698.385L907.691 697.586V691.989L904.493 688.791L904.094 681.996L899.697 685.993Z" stroke="white" stroke-width="4"/>
</g>
<path d="M658.502 228C590.002 299 659.517 427 659.517 427C659.517 427 506.001 277.5 594.502 187.5C683.003 97.5 659.517 0.5 659.517 0.5C659.517 0.5 727.002 157 658.502 228Z" fill="#F49D4D"/>
<mask id="path-15-outside-1_115_41" maskUnits="userSpaceOnUse" x="8.36621" y="1312" width="992" height="276" fill="black">
<rect fill="white" x="8.36621" y="1312" width="992" height="276"/>
<path fill-rule="evenodd" clip-rule="evenodd" d="M986.672 1367.06C984.296 1365.7 981.929 1364.34 979.562 1362.98C978.797 1368.31 977.46 1373.17 975.581 1377.49C973.537 1382.2 970.7 1386.4 967.116 1390.05C958.343 1398.96 950.051 1399.88 942.523 1393.26C932.166 1384.21 921.806 1375.16 911.449 1366.11C914.349 1363.32 917.222 1360.49 920.075 1357.63C929.817 1365.77 939.558 1373.91 949.296 1382.05C951.833 1384.17 954.162 1385.12 956.294 1384.88C958.427 1384.64 960.786 1383.21 963.339 1380.57C965.829 1378 967.753 1374.99 969.1 1371.57C970.319 1368.48 971.527 1364.58 972.665 1359.92C961.982 1351.94 951.301 1343.96 940.623 1335.98C943.392 1332.92 946.135 1329.82 948.855 1326.67C963.885 1337.39 978.917 1348.09 993.946 1358.81C991.537 1361.58 989.115 1364.33 986.672 1367.06ZM909.713 1379.76C907.163 1382.12 904.994 1384.91 903.177 1388.13C901.512 1391.09 899.643 1394.78 897.529 1399.19C906.886 1408.44 916.244 1417.69 925.606 1426.94C922.286 1429.79 918.945 1432.61 915.581 1435.39C902.945 1422.34 890.309 1409.29 877.668 1396.24C880.056 1394.27 882.431 1392.28 884.793 1390.27C887.114 1392.01 889.445 1393.75 891.773 1395.49C892.833 1390.61 894.315 1386.16 896.265 1382.1C898.325 1377.82 900.88 1374.24 903.983 1371.34C904.654 1370.71 905.32 1370.08 905.991 1369.46C908.199 1371.99 910.399 1374.53 912.6 1377.07C911.639 1377.97 910.676 1378.87 909.713 1379.76ZM904.362 1444.44C901.66 1446.57 898.948 1448.67 896.221 1450.75C893.806 1448.82 891.402 1446.88 888.998 1444.93C888.907 1445.48 888.795 1446.06 888.662 1446.67C888.2 1448.83 887.385 1451.17 886.205 1453.7C885.028 1456.23 883.465 1458.75 881.523 1461.24C879.581 1463.73 877.093 1466.04 874.073 1468.14C870.829 1470.4 867.6 1471.91 864.416 1472.68C861.226 1473.44 858.245 1473.38 855.478 1472.52C852.709 1471.65 850.36 1469.91 848.405 1467.32C847.225 1465.75 846.048 1464.2 844.871 1462.63C842.339 1459.28 841.676 1455.81 842.816 1452.23C843.96 1448.65 846.781 1445.34 851.294 1442.21C858.211 1437.42 865.039 1432.46 871.792 1427.36C870.839 1426.28 869.881 1425.19 868.926 1424.11C866.749 1421.77 864.541 1420.57 862.312 1420.48C860.083 1420.4 857.12 1421.74 853.367 1424.46C850.819 1426.31 847.705 1428.72 843.991 1431.66C840.279 1434.6 836.586 1437.46 832.911 1440.24C831.055 1438.43 829.199 1436.6 827.348 1434.78C829.387 1432.91 831.692 1430.89 834.25 1428.7C836.808 1426.51 839.444 1424.33 842.161 1422.14C844.876 1419.94 847.413 1417.98 849.78 1416.24C853.463 1413.55 856.896 1411.63 860.125 1410.52C863.348 1409.41 866.47 1409.31 869.498 1410.23C872.528 1411.15 875.593 1413.26 878.662 1416.59C887.231 1425.87 895.795 1435.16 904.362 1444.44ZM858.313 1446.63C855.969 1448.36 854.695 1450.01 854.5 1451.62C854.301 1453.23 854.862 1454.88 856.188 1456.56C856.877 1457.43 857.564 1458.3 858.25 1459.17C859.9 1461.25 861.732 1462.35 863.766 1462.43C865.794 1462.51 868.2 1461.59 870.952 1459.66C872.98 1458.23 874.99 1456.33 876.965 1453.94C878.939 1451.56 880.648 1448.84 882.079 1445.79C882.81 1444.23 883.389 1442.63 883.83 1441C881.491 1438.35 879.155 1435.7 876.817 1433.05C870.717 1437.7 864.546 1442.23 858.313 1446.63ZM828.977 1462.62C829.022 1465.57 827.685 1468.61 824.947 1471.68C822.204 1474.75 817.907 1478 812.042 1481.34C807.696 1483.8 803.828 1485.56 800.45 1486.65C800.364 1487.45 800.409 1488.25 800.594 1489.05C800.959 1490.6 801.805 1491.73 803.144 1492.42C804.483 1493.11 806.428 1492.97 808.97 1492C816.412 1489.07 823.832 1485.98 831.227 1482.74C836.839 1480.14 841.389 1479.13 844.933 1479.82C848.473 1480.5 851.618 1482.66 854.332 1486.33C856.914 1489.83 858.068 1493.11 857.762 1496.17C857.457 1499.23 855.57 1502.45 852.077 1505.78C848.585 1509.11 843.338 1512.86 836.317 1516.86C830.807 1520 826.033 1522.3 822.039 1523.83C818.046 1525.36 814.598 1526.13 811.721 1526.18C808.845 1526.24 806.407 1525.61 804.405 1524.33C802.405 1523.06 800.657 1521.11 799.145 1518.52C797.968 1516.5 797.344 1514.6 797.282 1512.83C797.211 1511.06 797.72 1509.2 798.793 1507.25C799.56 1505.85 800.597 1504.33 801.881 1502.7C801.763 1502.69 801.646 1502.68 801.531 1502.67C799.438 1502.4 797.684 1501.71 796.264 1500.59C794.841 1499.48 793.847 1498.14 793.27 1496.58C792.69 1495.03 792.5 1493.38 792.685 1491.64C792.826 1490.31 793.246 1489.11 793.935 1488.01C791.114 1488.21 788.668 1487.78 786.603 1486.76C783.837 1485.39 781.485 1483.02 779.517 1479.68C777.436 1476.15 776.481 1472.92 776.63 1470C776.776 1467.09 778.225 1464.28 780.952 1461.53C783.685 1458.79 787.841 1455.89 793.421 1452.72C798.258 1449.97 802.437 1448.01 806.002 1446.89C811.371 1443.67 816.704 1440.36 821.992 1436.95C822.924 1438.54 823.856 1440.13 824.785 1441.72C822.491 1443.46 820.181 1445.19 817.863 1446.9C820.612 1448.12 823.151 1450.29 825.446 1453.45C827.743 1456.61 828.928 1459.67 828.977 1462.62ZM809.599 1511.87C810.823 1513.87 812.248 1515.14 813.895 1515.68C815.535 1516.21 817.746 1515.98 820.518 1514.97C823.287 1513.96 826.933 1512.21 831.415 1509.65C835.902 1507.1 839.209 1504.87 841.355 1503.05C843.5 1501.22 844.701 1499.5 844.972 1497.92C845.241 1496.34 844.711 1494.62 843.398 1492.76C842.38 1491.31 841.357 1490.37 840.334 1489.91C839.311 1489.46 837.982 1489.46 836.343 1489.88C834.704 1490.31 832.488 1491.14 829.692 1492.36C823.224 1495.28 816.73 1498.08 810.22 1500.76C809.68 1501.86 809.241 1502.88 808.926 1503.83C808.44 1505.3 808.218 1506.66 808.268 1507.92C808.315 1509.18 808.759 1510.49 809.599 1511.87ZM815.884 1459.33C813.906 1456.5 811.57 1455.05 808.897 1454.98C806.219 1454.91 802.434 1456.32 797.485 1459.14C792.534 1461.94 789.462 1464.43 788.284 1466.69C787.107 1468.95 787.407 1471.54 789.216 1474.48C790.983 1477.35 793.241 1478.89 796.008 1479.05C798.767 1479.22 802.745 1477.89 807.874 1474.98C812.998 1472.07 816.093 1469.38 817.176 1467.03C818.257 1464.68 817.819 1462.11 815.884 1459.33ZM775.808 1523.38C767.439 1507.64 759.071 1491.9 750.703 1476.17C754.138 1474.58 757.562 1472.96 760.974 1471.29C769.687 1486.87 778.4 1502.44 787.115 1518.01C783.359 1519.84 779.59 1521.63 775.808 1523.38ZM748.523 1465.84C746.466 1466.8 744.942 1466.34 743.953 1464.47C742.977 1462.63 742.003 1460.79 741.024 1458.95C740.032 1457.08 740.541 1455.68 742.546 1454.75C744.099 1454.01 745.65 1453.28 747.2 1452.53C749.197 1451.58 750.708 1452.01 751.747 1453.86C752.767 1455.68 753.785 1457.5 754.809 1459.32C755.845 1461.17 755.344 1462.59 753.297 1463.57C751.71 1464.34 750.118 1465.09 748.523 1465.84ZM752.95 1533.42C751.46 1531.22 749.972 1529.02 748.489 1526.82C746.712 1530.16 744.381 1533.36 741.426 1536.39C738.132 1539.76 733.961 1542.4 728.96 1544.25C721.411 1547.04 715.061 1546.7 710.083 1543.38C705.09 1540.05 701.021 1534.04 697.76 1525.42C695.294 1518.9 694.143 1513.5 694.263 1509.21C694.383 1504.92 695.662 1501.47 698.097 1498.81C700.532 1496.15 704.027 1494.01 708.619 1492.3C712.247 1490.94 715.969 1490 719.811 1489.46C723.035 1489.01 726.3 1488.94 729.618 1489.26C728.806 1487.98 728.039 1486.7 727.368 1485.41C726.454 1483.67 725.53 1481.8 724.598 1479.83C722.312 1474.98 720.023 1470.14 717.736 1465.3C721.142 1463.9 724.536 1462.46 727.918 1460.99C739.322 1483.83 750.726 1506.67 762.133 1529.51C759.082 1530.84 756.02 1532.14 752.95 1533.42ZM731.983 1495.47C728.889 1495.86 726.115 1496.27 723.698 1496.72C720.889 1497.24 717.987 1498.08 714.98 1499.22C711.975 1500.36 709.739 1501.7 708.261 1503.28C706.786 1504.86 706.129 1507.08 706.291 1509.95C706.452 1512.82 707.476 1516.62 709.384 1521.33C711.263 1525.98 713.16 1529.45 715.095 1531.72C717.029 1534 719.174 1535.3 721.531 1535.6C723.883 1535.91 726.561 1535.5 729.539 1534.38C731.795 1533.53 733.744 1532.51 735.378 1531.32C737.015 1530.14 738.589 1528.62 740.095 1526.77C741.322 1525.25 742.703 1523.45 744.219 1521.37C740.139 1512.74 736.062 1504.1 731.983 1495.47ZM687.343 1556.69C685.923 1554.05 684.514 1551.4 683.107 1548.75C682.825 1549.22 682.517 1549.71 682.172 1550.23C680.974 1552.05 679.395 1553.91 677.43 1555.82C675.459 1557.72 673.157 1559.48 670.523 1561.08C667.887 1562.68 664.836 1563.92 661.385 1564.79C657.678 1565.72 654.256 1565.96 651.145 1565.54C648.034 1565.12 645.411 1564.01 643.278 1562.22C641.143 1560.44 639.702 1558 638.927 1554.92C638.46 1553.06 637.995 1551.2 637.528 1549.34C636.528 1545.34 637.23 1541.91 639.574 1539C641.918 1536.1 645.648 1534.05 650.803 1532.77C658.696 1530.81 666.558 1528.69 674.381 1526.41C673.935 1525.08 673.491 1523.74 673.045 1522.4C671.98 1519.46 670.476 1517.56 668.545 1516.68C666.61 1515.81 663.497 1515.98 659.184 1517.15C656.253 1517.94 652.612 1519.05 648.237 1520.44C643.86 1521.83 639.527 1523.16 635.233 1524.43C634.26 1522.09 633.291 1519.75 632.326 1517.42C634.829 1516.41 637.624 1515.36 640.702 1514.25C643.779 1513.14 646.922 1512.06 650.132 1511.01C653.343 1509.96 656.308 1509.05 659.038 1508.3C663.282 1507.14 667.012 1506.61 670.259 1506.74C673.509 1506.88 676.294 1507.9 678.628 1509.84C680.956 1511.78 682.88 1514.82 684.37 1518.98C688.518 1530.59 692.668 1542.21 696.818 1553.82C693.662 1554.8 690.507 1555.76 687.343 1556.69ZM676.725 1533.45C669.638 1535.54 662.525 1537.51 655.381 1539.34C652.669 1540.1 650.931 1541.17 650.158 1542.59C649.388 1544 649.276 1545.72 649.827 1547.75C650.117 1548.79 650.401 1549.84 650.688 1550.88C651.377 1553.39 652.602 1555.05 654.369 1555.85C656.138 1556.65 658.608 1556.66 661.755 1555.86C664.076 1555.26 666.558 1554.22 669.179 1552.73C671.802 1551.24 674.31 1549.35 676.694 1547.06C677.907 1545.88 679.009 1544.62 679.995 1543.27C678.904 1540 677.816 1536.73 676.725 1533.45ZM612.285 1536.96C611.603 1533.71 610.541 1531.58 609.108 1530.55C607.675 1529.53 605.514 1529.27 602.609 1529.76C599.315 1530.32 596.114 1531.58 592.972 1533.55C590.095 1535.36 586.705 1537.69 582.763 1540.53C584.651 1552.93 586.538 1565.34 588.422 1577.74C584.314 1578.29 580.205 1578.79 576.089 1579.26C573.821 1561.82 571.553 1544.38 569.284 1526.94C572.398 1526.58 575.512 1526.2 578.621 1525.8C579.315 1528.5 580.015 1531.2 580.717 1533.9C584.476 1530.36 588.263 1527.46 592.123 1525.2C596.177 1522.83 600.293 1521.28 604.535 1520.53C614.754 1518.73 620.945 1522.34 623.164 1531.78C626.15 1544.66 629.136 1557.54 632.119 1570.42C628.008 1571.25 623.892 1572.04 619.765 1572.79C617.273 1560.85 614.777 1548.91 612.285 1536.96ZM546.771 1545.32C546.495 1542.01 545.704 1539.78 544.409 1538.61C543.115 1537.44 541.008 1536.95 538.077 1537.13C534.746 1537.33 531.426 1538.23 528.072 1539.86C525.005 1541.34 521.364 1543.3 517.112 1545.69C517.47 1558.22 517.824 1570.74 518.182 1583.27C514.045 1583.37 509.908 1583.43 505.773 1583.46C505.653 1565.89 505.533 1548.32 505.41 1530.75C508.545 1530.73 511.675 1530.68 514.805 1530.62C515.16 1533.37 515.525 1536.13 515.89 1538.89C520.046 1535.78 524.152 1533.3 528.25 1531.47C532.551 1529.55 536.816 1528.45 541.105 1528.16C551.433 1527.47 557.116 1531.72 558.162 1541.34C559.548 1554.45 560.932 1567.57 562.32 1580.68C558.155 1581.07 553.986 1581.41 549.818 1581.72C548.802 1569.58 547.787 1557.45 546.771 1545.32ZM482.25 1583.18C481.854 1580.24 481.472 1577.3 481.091 1574.37C480.661 1574.73 480.209 1575.09 479.705 1575.48C477.949 1576.82 475.824 1578.09 473.321 1579.28C470.815 1580.47 468.051 1581.42 465.028 1582.11C462.003 1582.81 458.717 1583.04 455.185 1582.79C451.395 1582.52 448.104 1581.69 445.342 1580.33C442.575 1578.97 440.503 1577.11 439.133 1574.77C437.76 1572.43 437.269 1569.68 437.632 1566.53C437.851 1564.63 438.065 1562.74 438.284 1560.84C438.754 1556.76 440.626 1553.73 443.847 1551.71C447.07 1549.7 451.283 1548.92 456.558 1549.3C464.631 1549.89 472.713 1550.32 480.796 1550.59C480.851 1549.19 480.906 1547.79 480.958 1546.39C480.997 1543.29 480.264 1541.04 478.771 1539.61C477.275 1538.18 474.318 1537.38 469.878 1537.15C466.866 1536.99 463.073 1536.91 458.492 1536.87C453.911 1536.83 449.385 1536.75 444.917 1536.62C444.825 1534.11 444.742 1531.6 444.661 1529.1C447.362 1528.92 450.351 1528.8 453.627 1528.7C456.895 1528.6 460.215 1528.56 463.587 1528.56C466.955 1528.56 470.045 1528.62 472.851 1528.75C477.218 1528.97 480.88 1529.62 483.858 1530.76C486.834 1531.89 489.065 1533.72 490.556 1536.27C492.044 1538.82 492.769 1542.29 492.694 1546.68C492.487 1558.92 492.281 1571.16 492.07 1583.4C488.799 1583.35 485.523 1583.28 482.25 1583.18ZM458.526 1556.92C455.723 1556.8 453.718 1557.27 452.497 1558.37C451.278 1559.47 450.565 1561.05 450.375 1563.13C450.273 1564.21 450.174 1565.28 450.074 1566.36C449.834 1568.94 450.393 1570.89 451.771 1572.19C453.144 1573.49 455.449 1574.26 458.675 1574.47C461.053 1574.63 463.734 1574.42 466.707 1573.82C469.677 1573.22 472.681 1572.22 475.709 1570.79C477.254 1570.06 478.721 1569.21 480.113 1568.24C480.246 1564.81 480.376 1561.39 480.512 1557.96C473.18 1557.74 465.85 1557.39 458.526 1556.92ZM410.554 1535.39C409.669 1536.02 408.685 1536.66 407.588 1537.29C407.575 1537.36 407.565 1537.43 407.549 1537.5C408.432 1538.52 409.277 1539.54 410.086 1540.57C410.893 1541.61 411.54 1542.64 412.034 1543.65C418.483 1555.82 425.463 1567.9 432.975 1579.85C428.125 1579.34 423.286 1578.78 418.447 1578.16C411.026 1565.54 404.208 1552.8 397.928 1539.98C394.673 1539.42 391.418 1538.84 388.169 1538.23C388.148 1538.85 388.135 1539.47 388.101 1540.1C387.981 1542.21 387.733 1544.18 387.341 1546.02C385.467 1554.81 383.598 1563.6 381.724 1572.4C377.519 1571.61 373.319 1570.79 369.125 1569.92C374.859 1545.66 380.589 1521.4 386.321 1497.14C389.97 1497.9 393.624 1498.61 397.289 1499.3C395.694 1506.78 394.099 1514.27 392.504 1521.76C392.04 1523.95 391.457 1526.01 390.763 1527.93C390.507 1528.64 390.207 1529.35 389.912 1530.07C393.063 1530.66 396.224 1531.23 399.385 1531.77C409.413 1522.8 419.018 1513.6 428.133 1504.17C432.192 1504.7 436.259 1505.18 440.325 1505.62C431.717 1514.98 422.67 1524.15 413.193 1533.11C412.315 1534 411.433 1534.76 410.554 1535.39ZM321.57 1558.22C321.995 1555.66 322.426 1553.1 322.859 1550.54C319.213 1551.98 315.23 1552.95 310.915 1553.42C306.096 1553.96 301.124 1553.4 296.076 1551.73C288.454 1549.21 283.894 1545.06 282.472 1539.49C281.039 1533.92 282.19 1526.88 285.794 1518.38C288.517 1511.95 291.459 1507.18 294.565 1504.02C297.676 1500.86 301.074 1499.05 304.778 1498.54C308.485 1498.03 312.627 1498.55 317.273 1500.07C320.941 1501.27 324.386 1502.84 327.636 1504.78C330.356 1506.41 332.83 1508.36 335.08 1510.62C335.365 1509.16 335.686 1507.73 336.088 1506.34C336.63 1504.46 337.246 1502.49 337.933 1500.43C339.614 1495.38 341.298 1490.32 342.978 1485.27C346.492 1486.29 350.01 1487.28 353.537 1488.23C346.058 1512.44 338.578 1536.66 331.097 1560.87C327.915 1560.01 324.741 1559.13 321.57 1558.22ZM325.451 1512.64C322.987 1511.32 320.231 1510.17 317.182 1509.19C314.133 1508.21 311.51 1507.85 309.291 1508.14C307.075 1508.43 305.021 1509.7 303.123 1511.96C301.226 1514.23 299.331 1517.72 297.454 1522.44C295.601 1527.1 294.591 1530.88 294.45 1533.78C294.304 1536.69 295.011 1538.98 296.567 1540.65C298.12 1542.32 300.414 1543.66 303.434 1544.63C305.721 1545.37 307.895 1545.79 309.944 1545.9C311.993 1546.01 314.235 1545.83 316.652 1545.34C318.628 1544.95 320.925 1544.43 323.499 1543.79C326.498 1534.77 329.497 1525.77 332.496 1516.76C329.925 1515.16 327.57 1513.77 325.451 1512.64ZM264.931 1539.15C260.987 1537.61 257.054 1536.04 253.133 1534.42C258.395 1523.29 263.655 1512.16 268.917 1501.03C270.347 1498 270.77 1495.67 270.199 1494.06C269.63 1492.44 267.972 1491.06 265.231 1489.89C262.115 1488.55 258.643 1487.85 254.778 1487.75C251.246 1487.66 246.918 1487.73 241.849 1487.9C235.791 1499.07 229.735 1510.25 223.68 1521.42C219.866 1519.63 216.066 1517.79 212.284 1515.92C221.127 1500.41 229.97 1484.9 238.814 1469.39C241.68 1470.81 244.551 1472.21 247.435 1473.58C246.355 1476.17 245.279 1478.76 244.209 1481.35C249.575 1480.51 254.564 1480.2 259.21 1480.46C264.091 1480.72 268.51 1481.68 272.529 1483.38C282.224 1487.43 285.16 1493.73 281.214 1502.66C275.784 1514.82 270.36 1526.98 264.931 1539.15ZM199.804 1509.56C196.834 1508.01 193.877 1506.43 190.927 1504.83C192.063 1502.07 193.208 1499.3 194.357 1496.55C193.78 1496.66 193.175 1496.77 192.519 1496.88C190.222 1497.25 187.625 1497.38 184.72 1497.26C181.82 1497.14 178.792 1496.69 175.66 1495.89C172.525 1495.09 169.383 1493.75 166.256 1491.88C162.902 1489.86 160.286 1487.59 158.428 1485.09C156.567 1482.59 155.601 1479.98 155.523 1477.27C155.444 1474.56 156.389 1471.9 158.326 1469.3C159.495 1467.73 160.662 1466.17 161.829 1464.6C164.342 1461.23 167.616 1459.45 171.614 1459.2C175.616 1458.95 179.907 1460.24 184.571 1463.06C191.71 1467.37 198.925 1471.51 206.197 1475.5C206.962 1474.29 207.724 1473.08 208.489 1471.88C210.099 1469.17 210.577 1466.84 209.935 1464.9C209.29 1462.95 206.982 1460.87 203.023 1458.6C200.334 1457.06 196.884 1455.21 192.684 1453.03C188.484 1450.85 184.349 1448.64 180.288 1446.41C181.478 1444.17 182.674 1441.92 183.874 1439.68C186.464 1440.8 189.288 1442.1 192.358 1443.55C195.424 1445.01 198.507 1446.52 201.611 1448.1C204.712 1449.67 207.52 1451.17 210.031 1452.6C213.933 1454.82 216.956 1457.09 219.109 1459.47C221.26 1461.84 222.369 1464.49 222.435 1467.42C222.495 1470.34 221.391 1473.73 219.086 1477.56C212.66 1488.22 206.231 1498.89 199.804 1509.56ZM182.509 1470.68C179.99 1469.26 177.897 1468.74 176.214 1469.13C174.533 1469.52 173.066 1470.58 171.828 1472.32C171.189 1473.22 170.549 1474.12 169.91 1475.02C168.373 1477.18 167.9 1479.16 168.508 1480.95C169.114 1482.73 170.847 1484.5 173.708 1486.2C175.814 1487.45 178.393 1488.52 181.429 1489.38C184.464 1490.24 187.738 1490.75 191.24 1490.9C193.034 1490.98 194.814 1490.91 196.576 1490.71C198.445 1487.75 200.311 1484.8 202.182 1481.84C195.571 1478.25 189.014 1474.53 182.509 1470.68ZM142.563 1463.51C143.101 1465.3 144.51 1466.97 146.786 1468.48C148.472 1469.6 150.164 1470.71 151.855 1471.82C150.686 1474.18 149.517 1476.53 148.358 1478.89C147.389 1478.7 146.181 1478.27 144.74 1477.59C143.302 1476.91 141.856 1476.15 140.412 1475.32C138.966 1474.49 137.763 1473.74 136.797 1473.09C132.639 1470.28 130.081 1467.05 129.134 1463.5C128.186 1459.95 129.183 1456.43 132.073 1452.97C145.888 1436.35 159.704 1419.73 173.52 1403.11C176.566 1405.28 179.628 1407.43 182.71 1409.53C169.777 1425.74 156.841 1441.94 143.899 1458.13C142.472 1459.93 142.02 1461.72 142.563 1463.51ZM132.002 1435.37C127.442 1440.64 123.007 1444.28 118.656 1446.23C114.305 1448.19 109.656 1448.47 104.739 1447C99.8238 1445.53 94.2823 1442.35 88.2319 1437.38C82.2494 1432.47 78.167 1427.74 75.964 1423.36C73.7584 1418.97 73.4426 1414.61 74.9748 1410.34C76.507 1406.06 79.8741 1401.54 85.0136 1396.75C90.1008 1392.01 94.9244 1388.87 99.4505 1387.28C103.974 1385.69 108.503 1385.67 113.07 1387.18C117.638 1388.69 122.569 1391.7 127.972 1396.14C133.44 1400.63 137.23 1404.79 139.337 1408.76C141.443 1412.73 141.879 1416.83 140.624 1421.12C139.368 1425.4 136.515 1430.15 132.002 1435.37ZM128.463 1409.98C127.338 1407.57 125.161 1405.07 121.929 1402.41C118.701 1399.76 115.754 1398.05 113.05 1397.31C110.345 1396.58 107.592 1396.87 104.765 1398.21C101.943 1399.56 98.6831 1402.02 95.0001 1405.62C91.3172 1409.21 88.8323 1412.38 87.5637 1415.11C86.2978 1417.85 86.2377 1420.48 87.4071 1422.98C88.5713 1425.48 90.8839 1428.18 94.3528 1431.03C97.8165 1433.88 100.991 1435.69 103.836 1436.48C106.678 1437.27 109.5 1436.91 112.282 1435.42C115.07 1433.93 118.173 1431.28 121.614 1427.48C125.056 1423.69 127.33 1420.42 128.46 1417.68C129.585 1414.95 129.583 1412.38 128.463 1409.98ZM100.022 1374.57C95.3238 1378.85 91.0118 1381.59 87.0521 1382.74C83.0977 1383.89 79.0832 1383.5 75.0479 1381.54C71.0151 1379.58 66.5047 1376.15 61.6132 1371.19C58.9482 1368.48 56.4738 1365.81 54.182 1363.19C51.9216 1360.6 49.9326 1358.15 48.2047 1355.84C40.0687 1362.08 31.9328 1368.31 23.7994 1374.55C20.6254 1371.11 17.4828 1367.64 14.3662 1364.12C35.4174 1348.75 56.4712 1333.37 77.5197 1318C79.8245 1320.15 81.9701 1322.2 83.959 1324.15C85.9454 1326.1 88.0596 1328.26 90.3149 1330.59C92.5648 1332.93 95.2612 1335.73 98.4273 1338.95C103.227 1343.85 106.555 1348.09 108.383 1351.82C110.204 1355.55 110.466 1359.17 109.132 1362.72C107.798 1366.27 104.775 1370.23 100.022 1374.57ZM96.7098 1352.26C95.7336 1350.08 93.8621 1347.61 91.1031 1344.8C86.4309 1340.03 82.4138 1335.82 79.0075 1332.24C70.989 1338.38 62.9731 1344.53 54.9546 1350.67C55.6959 1351.47 56.4189 1352.27 57.1759 1353.08C60.6266 1356.78 64.119 1360.43 67.6454 1364.03C70.621 1366.95 73.2964 1368.98 75.6456 1370.15C77.9922 1371.31 80.3622 1371.53 82.7427 1370.83C85.1206 1370.12 87.8065 1368.45 90.803 1365.84C93.8569 1363.18 95.8432 1360.79 96.7777 1358.68C97.7121 1356.57 97.686 1354.43 96.7098 1352.26Z"/>
</mask>
<path fill-rule="evenodd" clip-rule="evenodd" d="M986.672 1367.06C984.296 1365.7 981.929 1364.34 979.562 1362.98C978.797 1368.31 977.46 1373.17 975.581 1377.49C973.537 1382.2 970.7 1386.4 967.116 1390.05C958.343 1398.96 950.051 1399.88 942.523 1393.26C932.166 1384.21 921.806 1375.16 911.449 1366.11C914.349 1363.32 917.222 1360.49 920.075 1357.63C929.817 1365.77 939.558 1373.91 949.296 1382.05C951.833 1384.17 954.162 1385.12 956.294 1384.88C958.427 1384.64 960.786 1383.21 963.339 1380.57C965.829 1378 967.753 1374.99 969.1 1371.57C970.319 1368.48 971.527 1364.58 972.665 1359.92C961.982 1351.94 951.301 1343.96 940.623 1335.98C943.392 1332.92 946.135 1329.82 948.855 1326.67C963.885 1337.39 978.917 1348.09 993.946 1358.81C991.537 1361.58 989.115 1364.33 986.672 1367.06ZM909.713 1379.76C907.163 1382.12 904.994 1384.91 903.177 1388.13C901.512 1391.09 899.643 1394.78 897.529 1399.19C906.886 1408.44 916.244 1417.69 925.606 1426.94C922.286 1429.79 918.945 1432.61 915.581 1435.39C902.945 1422.34 890.309 1409.29 877.668 1396.24C880.056 1394.27 882.431 1392.28 884.793 1390.27C887.114 1392.01 889.445 1393.75 891.773 1395.49C892.833 1390.61 894.315 1386.16 896.265 1382.1C898.325 1377.82 900.88 1374.24 903.983 1371.34C904.654 1370.71 905.32 1370.08 905.991 1369.46C908.199 1371.99 910.399 1374.53 912.6 1377.07C911.639 1377.97 910.676 1378.87 909.713 1379.76ZM904.362 1444.44C901.66 1446.57 898.948 1448.67 896.221 1450.75C893.806 1448.82 891.402 1446.88 888.998 1444.93C888.907 1445.48 888.795 1446.06 888.662 1446.67C888.2 1448.83 887.385 1451.17 886.205 1453.7C885.028 1456.23 883.465 1458.75 881.523 1461.24C879.581 1463.73 877.093 1466.04 874.073 1468.14C870.829 1470.4 867.6 1471.91 864.416 1472.68C861.226 1473.44 858.245 1473.38 855.478 1472.52C852.709 1471.65 850.36 1469.91 848.405 1467.32C847.225 1465.75 846.048 1464.2 844.871 1462.63C842.339 1459.28 841.676 1455.81 842.816 1452.23C843.96 1448.65 846.781 1445.34 851.294 1442.21C858.211 1437.42 865.039 1432.46 871.792 1427.36C870.839 1426.28 869.881 1425.19 868.926 1424.11C866.749 1421.77 864.541 1420.57 862.312 1420.48C860.083 1420.4 857.12 1421.74 853.367 1424.46C850.819 1426.31 847.705 1428.72 843.991 1431.66C840.279 1434.6 836.586 1437.46 832.911 1440.24C831.055 1438.43 829.199 1436.6 827.348 1434.78C829.387 1432.91 831.692 1430.89 834.25 1428.7C836.808 1426.51 839.444 1424.33 842.161 1422.14C844.876 1419.94 847.413 1417.98 849.78 1416.24C853.463 1413.55 856.896 1411.63 860.125 1410.52C863.348 1409.41 866.47 1409.31 869.498 1410.23C872.528 1411.15 875.593 1413.26 878.662 1416.59C887.231 1425.87 895.795 1435.16 904.362 1444.44ZM858.313 1446.63C855.969 1448.36 854.695 1450.01 854.5 1451.62C854.301 1453.23 854.862 1454.88 856.188 1456.56C856.877 1457.43 857.564 1458.3 858.25 1459.17C859.9 1461.25 861.732 1462.35 863.766 1462.43C865.794 1462.51 868.2 1461.59 870.952 1459.66C872.98 1458.23 874.99 1456.33 876.965 1453.94C878.939 1451.56 880.648 1448.84 882.079 1445.79C882.81 1444.23 883.389 1442.63 883.83 1441C881.491 1438.35 879.155 1435.7 876.817 1433.05C870.717 1437.7 864.546 1442.23 858.313 1446.63ZM828.977 1462.62C829.022 1465.57 827.685 1468.61 824.947 1471.68C822.204 1474.75 817.907 1478 812.042 1481.34C807.696 1483.8 803.828 1485.56 800.45 1486.65C800.364 1487.45 800.409 1488.25 800.594 1489.05C800.959 1490.6 801.805 1491.73 803.144 1492.42C804.483 1493.11 806.428 1492.97 808.97 1492C816.412 1489.07 823.832 1485.98 831.227 1482.74C836.839 1480.14 841.389 1479.13 844.933 1479.82C848.473 1480.5 851.618 1482.66 854.332 1486.33C856.914 1489.83 858.068 1493.11 857.762 1496.17C857.457 1499.23 855.57 1502.45 852.077 1505.78C848.585 1509.11 843.338 1512.86 836.317 1516.86C830.807 1520 826.033 1522.3 822.039 1523.83C818.046 1525.36 814.598 1526.13 811.721 1526.18C808.845 1526.24 806.407 1525.61 804.405 1524.33C802.405 1523.06 800.657 1521.11 799.145 1518.52C797.968 1516.5 797.344 1514.6 797.282 1512.83C797.211 1511.06 797.72 1509.2 798.793 1507.25C799.56 1505.85 800.597 1504.33 801.881 1502.7C801.763 1502.69 801.646 1502.68 801.531 1502.67C799.438 1502.4 797.684 1501.71 796.264 1500.59C794.841 1499.48 793.847 1498.14 793.27 1496.58C792.69 1495.03 792.5 1493.38 792.685 1491.64C792.826 1490.31 793.246 1489.11 793.935 1488.01C791.114 1488.21 788.668 1487.78 786.603 1486.76C783.837 1485.39 781.485 1483.02 779.517 1479.68C777.436 1476.15 776.481 1472.92 776.63 1470C776.776 1467.09 778.225 1464.28 780.952 1461.53C783.685 1458.79 787.841 1455.89 793.421 1452.72C798.258 1449.97 802.437 1448.01 806.002 1446.89C811.371 1443.67 816.704 1440.36 821.992 1436.95C822.924 1438.54 823.856 1440.13 824.785 1441.72C822.491 1443.46 820.181 1445.19 817.863 1446.9C820.612 1448.12 823.151 1450.29 825.446 1453.45C827.743 1456.61 828.928 1459.67 828.977 1462.62ZM809.599 1511.87C810.823 1513.87 812.248 1515.14 813.895 1515.68C815.535 1516.21 817.746 1515.98 820.518 1514.97C823.287 1513.96 826.933 1512.21 831.415 1509.65C835.902 1507.1 839.209 1504.87 841.355 1503.05C843.5 1501.22 844.701 1499.5 844.972 1497.92C845.241 1496.34 844.711 1494.62 843.398 1492.76C842.38 1491.31 841.357 1490.37 840.334 1489.91C839.311 1489.46 837.982 1489.46 836.343 1489.88C834.704 1490.31 832.488 1491.14 829.692 1492.36C823.224 1495.28 816.73 1498.08 810.22 1500.76C809.68 1501.86 809.241 1502.88 808.926 1503.83C808.44 1505.3 808.218 1506.66 808.268 1507.92C808.315 1509.18 808.759 1510.49 809.599 1511.87ZM815.884 1459.33C813.906 1456.5 811.57 1455.05 808.897 1454.98C806.219 1454.91 802.434 1456.32 797.485 1459.14C792.534 1461.94 789.462 1464.43 788.284 1466.69C787.107 1468.95 787.407 1471.54 789.216 1474.48C790.983 1477.35 793.241 1478.89 796.008 1479.05C798.767 1479.22 802.745 1477.89 807.874 1474.98C812.998 1472.07 816.093 1469.38 817.176 1467.03C818.257 1464.68 817.819 1462.11 815.884 1459.33ZM775.808 1523.38C767.439 1507.64 759.071 1491.9 750.703 1476.17C754.138 1474.58 757.562 1472.96 760.974 1471.29C769.687 1486.87 778.4 1502.44 787.115 1518.01C783.359 1519.84 779.59 1521.63 775.808 1523.38ZM748.523 1465.84C746.466 1466.8 744.942 1466.34 743.953 1464.47C742.977 1462.63 742.003 1460.79 741.024 1458.95C740.032 1457.08 740.541 1455.68 742.546 1454.75C744.099 1454.01 745.65 1453.28 747.2 1452.53C749.197 1451.58 750.708 1452.01 751.747 1453.86C752.767 1455.68 753.785 1457.5 754.809 1459.32C755.845 1461.17 755.344 1462.59 753.297 1463.57C751.71 1464.34 750.118 1465.09 748.523 1465.84ZM752.95 1533.42C751.46 1531.22 749.972 1529.02 748.489 1526.82C746.712 1530.16 744.381 1533.36 741.426 1536.39C738.132 1539.76 733.961 1542.4 728.96 1544.25C721.411 1547.04 715.061 1546.7 710.083 1543.38C705.09 1540.05 701.021 1534.04 697.76 1525.42C695.294 1518.9 694.143 1513.5 694.263 1509.21C694.383 1504.92 695.662 1501.47 698.097 1498.81C700.532 1496.15 704.027 1494.01 708.619 1492.3C712.247 1490.94 715.969 1490 719.811 1489.46C723.035 1489.01 726.3 1488.94 729.618 1489.26C728.806 1487.98 728.039 1486.7 727.368 1485.41C726.454 1483.67 725.53 1481.8 724.598 1479.83C722.312 1474.98 720.023 1470.14 717.736 1465.3C721.142 1463.9 724.536 1462.46 727.918 1460.99C739.322 1483.83 750.726 1506.67 762.133 1529.51C759.082 1530.84 756.02 1532.14 752.95 1533.42ZM731.983 1495.47C728.889 1495.86 726.115 1496.27 723.698 1496.72C720.889 1497.24 717.987 1498.08 714.98 1499.22C711.975 1500.36 709.739 1501.7 708.261 1503.28C706.786 1504.86 706.129 1507.08 706.291 1509.95C706.452 1512.82 707.476 1516.62 709.384 1521.33C711.263 1525.98 713.16 1529.45 715.095 1531.72C717.029 1534 719.174 1535.3 721.531 1535.6C723.883 1535.91 726.561 1535.5 729.539 1534.38C731.795 1533.53 733.744 1532.51 735.378 1531.32C737.015 1530.14 738.589 1528.62 740.095 1526.77C741.322 1525.25 742.703 1523.45 744.219 1521.37C740.139 1512.74 736.062 1504.1 731.983 1495.47ZM687.343 1556.69C685.923 1554.05 684.514 1551.4 683.107 1548.75C682.825 1549.22 682.517 1549.71 682.172 1550.23C680.974 1552.05 679.395 1553.91 677.43 1555.82C675.459 1557.72 673.157 1559.48 670.523 1561.08C667.887 1562.68 664.836 1563.92 661.385 1564.79C657.678 1565.72 654.256 1565.96 651.145 1565.54C648.034 1565.12 645.411 1564.01 643.278 1562.22C641.143 1560.44 639.702 1558 638.927 1554.92C638.46 1553.06 637.995 1551.2 637.528 1549.34C636.528 1545.34 637.23 1541.91 639.574 1539C641.918 1536.1 645.648 1534.05 650.803 1532.77C658.696 1530.81 666.558 1528.69 674.381 1526.41C673.935 1525.08 673.491 1523.74 673.045 1522.4C671.98 1519.46 670.476 1517.56 668.545 1516.68C666.61 1515.81 663.497 1515.98 659.184 1517.15C656.253 1517.94 652.612 1519.05 648.237 1520.44C643.86 1521.83 639.527 1523.16 635.233 1524.43C634.26 1522.09 633.291 1519.75 632.326 1517.42C634.829 1516.41 637.624 1515.36 640.702 1514.25C643.779 1513.14 646.922 1512.06 650.132 1511.01C653.343 1509.96 656.308 1509.05 659.038 1508.3C663.282 1507.14 667.012 1506.61 670.259 1506.74C673.509 1506.88 676.294 1507.9 678.628 1509.84C680.956 1511.78 682.88 1514.82 684.37 1518.98C688.518 1530.59 692.668 1542.21 696.818 1553.82C693.662 1554.8 690.507 1555.76 687.343 1556.69ZM676.725 1533.45C669.638 1535.54 662.525 1537.51 655.381 1539.34C652.669 1540.1 650.931 1541.17 650.158 1542.59C649.388 1544 649.276 1545.72 649.827 1547.75C650.117 1548.79 650.401 1549.84 650.688 1550.88C651.377 1553.39 652.602 1555.05 654.369 1555.85C656.138 1556.65 658.608 1556.66 661.755 1555.86C664.076 1555.26 666.558 1554.22 669.179 1552.73C671.802 1551.24 674.31 1549.35 676.694 1547.06C677.907 1545.88 679.009 1544.62 679.995 1543.27C678.904 1540 677.816 1536.73 676.725 1533.45ZM612.285 1536.96C611.603 1533.71 610.541 1531.58 609.108 1530.55C607.675 1529.53 605.514 1529.27 602.609 1529.76C599.315 1530.32 596.114 1531.58 592.972 1533.55C590.095 1535.36 586.705 1537.69 582.763 1540.53C584.651 1552.93 586.538 1565.34 588.422 1577.74C584.314 1578.29 580.205 1578.79 576.089 1579.26C573.821 1561.82 571.553 1544.38 569.284 1526.94C572.398 1526.58 575.512 1526.2 578.621 1525.8C579.315 1528.5 580.015 1531.2 580.717 1533.9C584.476 1530.36 588.263 1527.46 592.123 1525.2C596.177 1522.83 600.293 1521.28 604.535 1520.53C614.754 1518.73 620.945 1522.34 623.164 1531.78C626.15 1544.66 629.136 1557.54 632.119 1570.42C628.008 1571.25 623.892 1572.04 619.765 1572.79C617.273 1560.85 614.777 1548.91 612.285 1536.96ZM546.771 1545.32C546.495 1542.01 545.704 1539.78 544.409 1538.61C543.115 1537.44 541.008 1536.95 538.077 1537.13C534.746 1537.33 531.426 1538.23 528.072 1539.86C525.005 1541.34 521.364 1543.3 517.112 1545.69C517.47 1558.22 517.824 1570.74 518.182 1583.27C514.045 1583.37 509.908 1583.43 505.773 1583.46C505.653 1565.89 505.533 1548.32 505.41 1530.75C508.545 1530.73 511.675 1530.68 514.805 1530.62C515.16 1533.37 515.525 1536.13 515.89 1538.89C520.046 1535.78 524.152 1533.3 528.25 1531.47C532.551 1529.55 536.816 1528.45 541.105 1528.16C551.433 1527.47 557.116 1531.72 558.162 1541.34C559.548 1554.45 560.932 1567.57 562.32 1580.68C558.155 1581.07 553.986 1581.41 549.818 1581.72C548.802 1569.58 547.787 1557.45 546.771 1545.32ZM482.25 1583.18C481.854 1580.24 481.472 1577.3 481.091 1574.37C480.661 1574.73 480.209 1575.09 479.705 1575.48C477.949 1576.82 475.824 1578.09 473.321 1579.28C470.815 1580.47 468.051 1581.42 465.028 1582.11C462.003 1582.81 458.717 1583.04 455.185 1582.79C451.395 1582.52 448.104 1581.69 445.342 1580.33C442.575 1578.97 440.503 1577.11 439.133 1574.77C437.76 1572.43 437.269 1569.68 437.632 1566.53C437.851 1564.63 438.065 1562.74 438.284 1560.84C438.754 1556.76 440.626 1553.73 443.847 1551.71C447.07 1549.7 451.283 1548.92 456.558 1549.3C464.631 1549.89 472.713 1550.32 480.796 1550.59C480.851 1549.19 480.906 1547.79 480.958 1546.39C480.997 1543.29 480.264 1541.04 478.771 1539.61C477.275 1538.18 474.318 1537.38 469.878 1537.15C466.866 1536.99 463.073 1536.91 458.492 1536.87C453.911 1536.83 449.385 1536.75 444.917 1536.62C444.825 1534.11 444.742 1531.6 444.661 1529.1C447.362 1528.92 450.351 1528.8 453.627 1528.7C456.895 1528.6 460.215 1528.56 463.587 1528.56C466.955 1528.56 470.045 1528.62 472.851 1528.75C477.218 1528.97 480.88 1529.62 483.858 1530.76C486.834 1531.89 489.065 1533.72 490.556 1536.27C492.044 1538.82 492.769 1542.29 492.694 1546.68C492.487 1558.92 492.281 1571.16 492.07 1583.4C488.799 1583.35 485.523 1583.28 482.25 1583.18ZM458.526 1556.92C455.723 1556.8 453.718 1557.27 452.497 1558.37C451.278 1559.47 450.565 1561.05 450.375 1563.13C450.273 1564.21 450.174 1565.28 450.074 1566.36C449.834 1568.94 450.393 1570.89 451.771 1572.19C453.144 1573.49 455.449 1574.26 458.675 1574.47C461.053 1574.63 463.734 1574.42 466.707 1573.82C469.677 1573.22 472.681 1572.22 475.709 1570.79C477.254 1570.06 478.721 1569.21 480.113 1568.24C480.246 1564.81 480.376 1561.39 480.512 1557.96C473.18 1557.74 465.85 1557.39 458.526 1556.92ZM410.554 1535.39C409.669 1536.02 408.685 1536.66 407.588 1537.29C407.575 1537.36 407.565 1537.43 407.549 1537.5C408.432 1538.52 409.277 1539.54 410.086 1540.57C410.893 1541.61 411.54 1542.64 412.034 1543.65C418.483 1555.82 425.463 1567.9 432.975 1579.85C428.125 1579.34 423.286 1578.78 418.447 1578.16C411.026 1565.54 404.208 1552.8 397.928 1539.98C394.673 1539.42 391.418 1538.84 388.169 1538.23C388.148 1538.85 388.135 1539.47 388.101 1540.1C387.981 1542.21 387.733 1544.18 387.341 1546.02C385.467 1554.81 383.598 1563.6 381.724 1572.4C377.519 1571.61 373.319 1570.79 369.125 1569.92C374.859 1545.66 380.589 1521.4 386.321 1497.14C389.97 1497.9 393.624 1498.61 397.289 1499.3C395.694 1506.78 394.099 1514.27 392.504 1521.76C392.04 1523.95 391.457 1526.01 390.763 1527.93C390.507 1528.64 390.207 1529.35 389.912 1530.07C393.063 1530.66 396.224 1531.23 399.385 1531.77C409.413 1522.8 419.018 1513.6 428.133 1504.17C432.192 1504.7 436.259 1505.18 440.325 1505.62C431.717 1514.98 422.67 1524.15 413.193 1533.11C412.315 1534 411.433 1534.76 410.554 1535.39ZM321.57 1558.22C321.995 1555.66 322.426 1553.1 322.859 1550.54C319.213 1551.98 315.23 1552.95 310.915 1553.42C306.096 1553.96 301.124 1553.4 296.076 1551.73C288.454 1549.21 283.894 1545.06 282.472 1539.49C281.039 1533.92 282.19 1526.88 285.794 1518.38C288.517 1511.95 291.459 1507.18 294.565 1504.02C297.676 1500.86 301.074 1499.05 304.778 1498.54C308.485 1498.03 312.627 1498.55 317.273 1500.07C320.941 1501.27 324.386 1502.84 327.636 1504.78C330.356 1506.41 332.83 1508.36 335.08 1510.62C335.365 1509.16 335.686 1507.73 336.088 1506.34C336.63 1504.46 337.246 1502.49 337.933 1500.43C339.614 1495.38 341.298 1490.32 342.978 1485.27C346.492 1486.29 350.01 1487.28 353.537 1488.23C346.058 1512.44 338.578 1536.66 331.097 1560.87C327.915 1560.01 324.741 1559.13 321.57 1558.22ZM325.451 1512.64C322.987 1511.32 320.231 1510.17 317.182 1509.19C314.133 1508.21 311.51 1507.85 309.291 1508.14C307.075 1508.43 305.021 1509.7 303.123 1511.96C301.226 1514.23 299.331 1517.72 297.454 1522.44C295.601 1527.1 294.591 1530.88 294.45 1533.78C294.304 1536.69 295.011 1538.98 296.567 1540.65C298.12 1542.32 300.414 1543.66 303.434 1544.63C305.721 1545.37 307.895 1545.79 309.944 1545.9C311.993 1546.01 314.235 1545.83 316.652 1545.34C318.628 1544.95 320.925 1544.43 323.499 1543.79C326.498 1534.77 329.497 1525.77 332.496 1516.76C329.925 1515.16 327.57 1513.77 325.451 1512.64ZM264.931 1539.15C260.987 1537.61 257.054 1536.04 253.133 1534.42C258.395 1523.29 263.655 1512.16 268.917 1501.03C270.347 1498 270.77 1495.67 270.199 1494.06C269.63 1492.44 267.972 1491.06 265.231 1489.89C262.115 1488.55 258.643 1487.85 254.778 1487.75C251.246 1487.66 246.918 1487.73 241.849 1487.9C235.791 1499.07 229.735 1510.25 223.68 1521.42C219.866 1519.63 216.066 1517.79 212.284 1515.92C221.127 1500.41 229.97 1484.9 238.814 1469.39C241.68 1470.81 244.551 1472.21 247.435 1473.58C246.355 1476.17 245.279 1478.76 244.209 1481.35C249.575 1480.51 254.564 1480.2 259.21 1480.46C264.091 1480.72 268.51 1481.68 272.529 1483.38C282.224 1487.43 285.16 1493.73 281.214 1502.66C275.784 1514.82 270.36 1526.98 264.931 1539.15ZM199.804 1509.56C196.834 1508.01 193.877 1506.43 190.927 1504.83C192.063 1502.07 193.208 1499.3 194.357 1496.55C193.78 1496.66 193.175 1496.77 192.519 1496.88C190.222 1497.25 187.625 1497.38 184.72 1497.26C181.82 1497.14 178.792 1496.69 175.66 1495.89C172.525 1495.09 169.383 1493.75 166.256 1491.88C162.902 1489.86 160.286 1487.59 158.428 1485.09C156.567 1482.59 155.601 1479.98 155.523 1477.27C155.444 1474.56 156.389 1471.9 158.326 1469.3C159.495 1467.73 160.662 1466.17 161.829 1464.6C164.342 1461.23 167.616 1459.45 171.614 1459.2C175.616 1458.95 179.907 1460.24 184.571 1463.06C191.71 1467.37 198.925 1471.51 206.197 1475.5C206.962 1474.29 207.724 1473.08 208.489 1471.88C210.099 1469.17 210.577 1466.84 209.935 1464.9C209.29 1462.95 206.982 1460.87 203.023 1458.6C200.334 1457.06 196.884 1455.21 192.684 1453.03C188.484 1450.85 184.349 1448.64 180.288 1446.41C181.478 1444.17 182.674 1441.92 183.874 1439.68C186.464 1440.8 189.288 1442.1 192.358 1443.55C195.424 1445.01 198.507 1446.52 201.611 1448.1C204.712 1449.67 207.52 1451.17 210.031 1452.6C213.933 1454.82 216.956 1457.09 219.109 1459.47C221.26 1461.84 222.369 1464.49 222.435 1467.42C222.495 1470.34 221.391 1473.73 219.086 1477.56C212.66 1488.22 206.231 1498.89 199.804 1509.56ZM182.509 1470.68C179.99 1469.26 177.897 1468.74 176.214 1469.13C174.533 1469.52 173.066 1470.58 171.828 1472.32C171.189 1473.22 170.549 1474.12 169.91 1475.02C168.373 1477.18 167.9 1479.16 168.508 1480.95C169.114 1482.73 170.847 1484.5 173.708 1486.2C175.814 1487.45 178.393 1488.52 181.429 1489.38C184.464 1490.24 187.738 1490.75 191.24 1490.9C193.034 1490.98 194.814 1490.91 196.576 1490.71C198.445 1487.75 200.311 1484.8 202.182 1481.84C195.571 1478.25 189.014 1474.53 182.509 1470.68ZM142.563 1463.51C143.101 1465.3 144.51 1466.97 146.786 1468.48C148.472 1469.6 150.164 1470.71 151.855 1471.82C150.686 1474.18 149.517 1476.53 148.358 1478.89C147.389 1478.7 146.181 1478.27 144.74 1477.59C143.302 1476.91 141.856 1476.15 140.412 1475.32C138.966 1474.49 137.763 1473.74 136.797 1473.09C132.639 1470.28 130.081 1467.05 129.134 1463.5C128.186 1459.95 129.183 1456.43 132.073 1452.97C145.888 1436.35 159.704 1419.73 173.52 1403.11C176.566 1405.28 179.628 1407.43 182.71 1409.53C169.777 1425.74 156.841 1441.94 143.899 1458.13C142.472 1459.93 142.02 1461.72 142.563 1463.51ZM132.002 1435.37C127.442 1440.64 123.007 1444.28 118.656 1446.23C114.305 1448.19 109.656 1448.47 104.739 1447C99.8238 1445.53 94.2823 1442.35 88.2319 1437.38C82.2494 1432.47 78.167 1427.74 75.964 1423.36C73.7584 1418.97 73.4426 1414.61 74.9748 1410.34C76.507 1406.06 79.8741 1401.54 85.0136 1396.75C90.1008 1392.01 94.9244 1388.87 99.4505 1387.28C103.974 1385.69 108.503 1385.67 113.07 1387.18C117.638 1388.69 122.569 1391.7 127.972 1396.14C133.44 1400.63 137.23 1404.79 139.337 1408.76C141.443 1412.73 141.879 1416.83 140.624 1421.12C139.368 1425.4 136.515 1430.15 132.002 1435.37ZM128.463 1409.98C127.338 1407.57 125.161 1405.07 121.929 1402.41C118.701 1399.76 115.754 1398.05 113.05 1397.31C110.345 1396.58 107.592 1396.87 104.765 1398.21C101.943 1399.56 98.6831 1402.02 95.0001 1405.62C91.3172 1409.21 88.8323 1412.38 87.5637 1415.11C86.2978 1417.85 86.2377 1420.48 87.4071 1422.98C88.5713 1425.48 90.8839 1428.18 94.3528 1431.03C97.8165 1433.88 100.991 1435.69 103.836 1436.48C106.678 1437.27 109.5 1436.91 112.282 1435.42C115.07 1433.93 118.173 1431.28 121.614 1427.48C125.056 1423.69 127.33 1420.42 128.46 1417.68C129.585 1414.95 129.583 1412.38 128.463 1409.98ZM100.022 1374.57C95.3238 1378.85 91.0118 1381.59 87.0521 1382.74C83.0977 1383.89 79.0832 1383.5 75.0479 1381.54C71.0151 1379.58 66.5047 1376.15 61.6132 1371.19C58.9482 1368.48 56.4738 1365.81 54.182 1363.19C51.9216 1360.6 49.9326 1358.15 48.2047 1355.84C40.0687 1362.08 31.9328 1368.31 23.7994 1374.55C20.6254 1371.11 17.4828 1367.64 14.3662 1364.12C35.4174 1348.75 56.4712 1333.37 77.5197 1318C79.8245 1320.15 81.9701 1322.2 83.959 1324.15C85.9454 1326.1 88.0596 1328.26 90.3149 1330.59C92.5648 1332.93 95.2612 1335.73 98.4273 1338.95C103.227 1343.85 106.555 1348.09 108.383 1351.82C110.204 1355.55 110.466 1359.17 109.132 1362.72C107.798 1366.27 104.775 1370.23 100.022 1374.57ZM96.7098 1352.26C95.7336 1350.08 93.8621 1347.61 91.1031 1344.8C86.4309 1340.03 82.4138 1335.82 79.0075 1332.24C70.989 1338.38 62.9731 1344.53 54.9546 1350.67C55.6959 1351.47 56.4189 1352.27 57.1759 1353.08C60.6266 1356.78 64.119 1360.43 67.6454 1364.03C70.621 1366.95 73.2964 1368.98 75.6456 1370.15C77.9922 1371.31 80.3622 1371.53 82.7427 1370.83C85.1206 1370.12 87.8065 1368.45 90.803 1365.84C93.8569 1363.18 95.8432 1360.79 96.7777 1358.68C97.7121 1356.57 97.686 1354.43 96.7098 1352.26Z" fill="black"/>
<path fill-rule="evenodd" clip-rule="evenodd" d="M986.672 1367.06C984.296 1365.7 981.929 1364.34 979.562 1362.98C978.797 1368.31 977.46 1373.17 975.581 1377.49C973.537 1382.2 970.7 1386.4 967.116 1390.05C958.343 1398.96 950.051 1399.88 942.523 1393.26C932.166 1384.21 921.806 1375.16 911.449 1366.11C914.349 1363.32 917.222 1360.49 920.075 1357.63C929.817 1365.77 939.558 1373.91 949.296 1382.05C951.833 1384.17 954.162 1385.12 956.294 1384.88C958.427 1384.64 960.786 1383.21 963.339 1380.57C965.829 1378 967.753 1374.99 969.1 1371.57C970.319 1368.48 971.527 1364.58 972.665 1359.92C961.982 1351.94 951.301 1343.96 940.623 1335.98C943.392 1332.92 946.135 1329.82 948.855 1326.67C963.885 1337.39 978.917 1348.09 993.946 1358.81C991.537 1361.58 989.115 1364.33 986.672 1367.06ZM909.713 1379.76C907.163 1382.12 904.994 1384.91 903.177 1388.13C901.512 1391.09 899.643 1394.78 897.529 1399.19C906.886 1408.44 916.244 1417.69 925.606 1426.94C922.286 1429.79 918.945 1432.61 915.581 1435.39C902.945 1422.34 890.309 1409.29 877.668 1396.24C880.056 1394.27 882.431 1392.28 884.793 1390.27C887.114 1392.01 889.445 1393.75 891.773 1395.49C892.833 1390.61 894.315 1386.16 896.265 1382.1C898.325 1377.82 900.88 1374.24 903.983 1371.34C904.654 1370.71 905.32 1370.08 905.991 1369.46C908.199 1371.99 910.399 1374.53 912.6 1377.07C911.639 1377.97 910.676 1378.87 909.713 1379.76ZM904.362 1444.44C901.66 1446.57 898.948 1448.67 896.221 1450.75C893.806 1448.82 891.402 1446.88 888.998 1444.93C888.907 1445.48 888.795 1446.06 888.662 1446.67C888.2 1448.83 887.385 1451.17 886.205 1453.7C885.028 1456.23 883.465 1458.75 881.523 1461.24C879.581 1463.73 877.093 1466.04 874.073 1468.14C870.829 1470.4 867.6 1471.91 864.416 1472.68C861.226 1473.44 858.245 1473.38 855.478 1472.52C852.709 1471.65 850.36 1469.91 848.405 1467.32C847.225 1465.75 846.048 1464.2 844.871 1462.63C842.339 1459.28 841.676 1455.81 842.816 1452.23C843.96 1448.65 846.781 1445.34 851.294 1442.21C858.211 1437.42 865.039 1432.46 871.792 1427.36C870.839 1426.28 869.881 1425.19 868.926 1424.11C866.749 1421.77 864.541 1420.57 862.312 1420.48C860.083 1420.4 857.12 1421.74 853.367 1424.46C850.819 1426.31 847.705 1428.72 843.991 1431.66C840.279 1434.6 836.586 1437.46 832.911 1440.24C831.055 1438.43 829.199 1436.6 827.348 1434.78C829.387 1432.91 831.692 1430.89 834.25 1428.7C836.808 1426.51 839.444 1424.33 842.161 1422.14C844.876 1419.94 847.413 1417.98 849.78 1416.24C853.463 1413.55 856.896 1411.63 860.125 1410.52C863.348 1409.41 866.47 1409.31 869.498 1410.23C872.528 1411.15 875.593 1413.26 878.662 1416.59C887.231 1425.87 895.795 1435.16 904.362 1444.44ZM858.313 1446.63C855.969 1448.36 854.695 1450.01 854.5 1451.62C854.301 1453.23 854.862 1454.88 856.188 1456.56C856.877 1457.43 857.564 1458.3 858.25 1459.17C859.9 1461.25 861.732 1462.35 863.766 1462.43C865.794 1462.51 868.2 1461.59 870.952 1459.66C872.98 1458.23 874.99 1456.33 876.965 1453.94C878.939 1451.56 880.648 1448.84 882.079 1445.79C882.81 1444.23 883.389 1442.63 883.83 1441C881.491 1438.35 879.155 1435.7 876.817 1433.05C870.717 1437.7 864.546 1442.23 858.313 1446.63ZM828.977 1462.62C829.022 1465.57 827.685 1468.61 824.947 1471.68C822.204 1474.75 817.907 1478 812.042 1481.34C807.696 1483.8 803.828 1485.56 800.45 1486.65C800.364 1487.45 800.409 1488.25 800.594 1489.05C800.959 1490.6 801.805 1491.73 803.144 1492.42C804.483 1493.11 806.428 1492.97 808.97 1492C816.412 1489.07 823.832 1485.98 831.227 1482.74C836.839 1480.14 841.389 1479.13 844.933 1479.82C848.473 1480.5 851.618 1482.66 854.332 1486.33C856.914 1489.83 858.068 1493.11 857.762 1496.17C857.457 1499.23 855.57 1502.45 852.077 1505.78C848.585 1509.11 843.338 1512.86 836.317 1516.86C830.807 1520 826.033 1522.3 822.039 1523.83C818.046 1525.36 814.598 1526.13 811.721 1526.18C808.845 1526.24 806.407 1525.61 804.405 1524.33C802.405 1523.06 800.657 1521.11 799.145 1518.52C797.968 1516.5 797.344 1514.6 797.282 1512.83C797.211 1511.06 797.72 1509.2 798.793 1507.25C799.56 1505.85 800.597 1504.33 801.881 1502.7C801.763 1502.69 801.646 1502.68 801.531 1502.67C799.438 1502.4 797.684 1501.71 796.264 1500.59C794.841 1499.48 793.847 1498.14 793.27 1496.58C792.69 1495.03 792.5 1493.38 792.685 1491.64C792.826 1490.31 793.246 1489.11 793.935 1488.01C791.114 1488.21 788.668 1487.78 786.603 1486.76C783.837 1485.39 781.485 1483.02 779.517 1479.68C777.436 1476.15 776.481 1472.92 776.63 1470C776.776 1467.09 778.225 1464.28 780.952 1461.53C783.685 1458.79 787.841 1455.89 793.421 1452.72C798.258 1449.97 802.437 1448.01 806.002 1446.89C811.371 1443.67 816.704 1440.36 821.992 1436.95C822.924 1438.54 823.856 1440.13 824.785 1441.72C822.491 1443.46 820.181 1445.19 817.863 1446.9C820.612 1448.12 823.151 1450.29 825.446 1453.45C827.743 1456.61 828.928 1459.67 828.977 1462.62ZM809.599 1511.87C810.823 1513.87 812.248 1515.14 813.895 1515.68C815.535 1516.21 817.746 1515.98 820.518 1514.97C823.287 1513.96 826.933 1512.21 831.415 1509.65C835.902 1507.1 839.209 1504.87 841.355 1503.05C843.5 1501.22 844.701 1499.5 844.972 1497.92C845.241 1496.34 844.711 1494.62 843.398 1492.76C842.38 1491.31 841.357 1490.37 840.334 1489.91C839.311 1489.46 837.982 1489.46 836.343 1489.88C834.704 1490.31 832.488 1491.14 829.692 1492.36C823.224 1495.28 816.73 1498.08 810.22 1500.76C809.68 1501.86 809.241 1502.88 808.926 1503.83C808.44 1505.3 808.218 1506.66 808.268 1507.92C808.315 1509.18 808.759 1510.49 809.599 1511.87ZM815.884 1459.33C813.906 1456.5 811.57 1455.05 808.897 1454.98C806.219 1454.91 802.434 1456.32 797.485 1459.14C792.534 1461.94 789.462 1464.43 788.284 1466.69C787.107 1468.95 787.407 1471.54 789.216 1474.48C790.983 1477.35 793.241 1478.89 796.008 1479.05C798.767 1479.22 802.745 1477.89 807.874 1474.98C812.998 1472.07 816.093 1469.38 817.176 1467.03C818.257 1464.68 817.819 1462.11 815.884 1459.33ZM775.808 1523.38C767.439 1507.64 759.071 1491.9 750.703 1476.17C754.138 1474.58 757.562 1472.96 760.974 1471.29C769.687 1486.87 778.4 1502.44 787.115 1518.01C783.359 1519.84 779.59 1521.63 775.808 1523.38ZM748.523 1465.84C746.466 1466.8 744.942 1466.34 743.953 1464.47C742.977 1462.63 742.003 1460.79 741.024 1458.95C740.032 1457.08 740.541 1455.68 742.546 1454.75C744.099 1454.01 745.65 1453.28 747.2 1452.53C749.197 1451.58 750.708 1452.01 751.747 1453.86C752.767 1455.68 753.785 1457.5 754.809 1459.32C755.845 1461.17 755.344 1462.59 753.297 1463.57C751.71 1464.34 750.118 1465.09 748.523 1465.84ZM752.95 1533.42C751.46 1531.22 749.972 1529.02 748.489 1526.82C746.712 1530.16 744.381 1533.36 741.426 1536.39C738.132 1539.76 733.961 1542.4 728.96 1544.25C721.411 1547.04 715.061 1546.7 710.083 1543.38C705.09 1540.05 701.021 1534.04 697.76 1525.42C695.294 1518.9 694.143 1513.5 694.263 1509.21C694.383 1504.92 695.662 1501.47 698.097 1498.81C700.532 1496.15 704.027 1494.01 708.619 1492.3C712.247 1490.94 715.969 1490 719.811 1489.46C723.035 1489.01 726.3 1488.94 729.618 1489.26C728.806 1487.98 728.039 1486.7 727.368 1485.41C726.454 1483.67 725.53 1481.8 724.598 1479.83C722.312 1474.98 720.023 1470.14 717.736 1465.3C721.142 1463.9 724.536 1462.46 727.918 1460.99C739.322 1483.83 750.726 1506.67 762.133 1529.51C759.082 1530.84 756.02 1532.14 752.95 1533.42ZM731.983 1495.47C728.889 1495.86 726.115 1496.27 723.698 1496.72C720.889 1497.24 717.987 1498.08 714.98 1499.22C711.975 1500.36 709.739 1501.7 708.261 1503.28C706.786 1504.86 706.129 1507.08 706.291 1509.95C706.452 1512.82 707.476 1516.62 709.384 1521.33C711.263 1525.98 713.16 1529.45 715.095 1531.72C717.029 1534 719.174 1535.3 721.531 1535.6C723.883 1535.91 726.561 1535.5 729.539 1534.38C731.795 1533.53 733.744 1532.51 735.378 1531.32C737.015 1530.14 738.589 1528.62 740.095 1526.77C741.322 1525.25 742.703 1523.45 744.219 1521.37C740.139 1512.74 736.062 1504.1 731.983 1495.47ZM687.343 1556.69C685.923 1554.05 684.514 1551.4 683.107 1548.75C682.825 1549.22 682.517 1549.71 682.172 1550.23C680.974 1552.05 679.395 1553.91 677.43 1555.82C675.459 1557.72 673.157 1559.48 670.523 1561.08C667.887 1562.68 664.836 1563.92 661.385 1564.79C657.678 1565.72 654.256 1565.96 651.145 1565.54C648.034 1565.12 645.411 1564.01 643.278 1562.22C641.143 1560.44 639.702 1558 638.927 1554.92C638.46 1553.06 637.995 1551.2 637.528 1549.34C636.528 1545.34 637.23 1541.91 639.574 1539C641.918 1536.1 645.648 1534.05 650.803 1532.77C658.696 1530.81 666.558 1528.69 674.381 1526.41C673.935 1525.08 673.491 1523.74 673.045 1522.4C671.98 1519.46 670.476 1517.56 668.545 1516.68C666.61 1515.81 663.497 1515.98 659.184 1517.15C656.253 1517.94 652.612 1519.05 648.237 1520.44C643.86 1521.83 639.527 1523.16 635.233 1524.43C634.26 1522.09 633.291 1519.75 632.326 1517.42C634.829 1516.41 637.624 1515.36 640.702 1514.25C643.779 1513.14 646.922 1512.06 650.132 1511.01C653.343 1509.96 656.308 1509.05 659.038 1508.3C663.282 1507.14 667.012 1506.61 670.259 1506.74C673.509 1506.88 676.294 1507.9 678.628 1509.84C680.956 1511.78 682.88 1514.82 684.37 1518.98C688.518 1530.59 692.668 1542.21 696.818 1553.82C693.662 1554.8 690.507 1555.76 687.343 1556.69ZM676.725 1533.45C669.638 1535.54 662.525 1537.51 655.381 1539.34C652.669 1540.1 650.931 1541.17 650.158 1542.59C649.388 1544 649.276 1545.72 649.827 1547.75C650.117 1548.79 650.401 1549.84 650.688 1550.88C651.377 1553.39 652.602 1555.05 654.369 1555.85C656.138 1556.65 658.608 1556.66 661.755 1555.86C664.076 1555.26 666.558 1554.22 669.179 1552.73C671.802 1551.24 674.31 1549.35 676.694 1547.06C677.907 1545.88 679.009 1544.62 679.995 1543.27C678.904 1540 677.816 1536.73 676.725 1533.45ZM612.285 1536.96C611.603 1533.71 610.541 1531.58 609.108 1530.55C607.675 1529.53 605.514 1529.27 602.609 1529.76C599.315 1530.32 596.114 1531.58 592.972 1533.55C590.095 1535.36 586.705 1537.69 582.763 1540.53C584.651 1552.93 586.538 1565.34 588.422 1577.74C584.314 1578.29 580.205 1578.79 576.089 1579.26C573.821 1561.82 571.553 1544.38 569.284 1526.94C572.398 1526.58 575.512 1526.2 578.621 1525.8C579.315 1528.5 580.015 1531.2 580.717 1533.9C584.476 1530.36 588.263 1527.46 592.123 1525.2C596.177 1522.83 600.293 1521.28 604.535 1520.53C614.754 1518.73 620.945 1522.34 623.164 1531.78C626.15 1544.66 629.136 1557.54 632.119 1570.42C628.008 1571.25 623.892 1572.04 619.765 1572.79C617.273 1560.85 614.777 1548.91 612.285 1536.96ZM546.771 1545.32C546.495 1542.01 545.704 1539.78 544.409 1538.61C543.115 1537.44 541.008 1536.95 538.077 1537.13C534.746 1537.33 531.426 1538.23 528.072 1539.86C525.005 1541.34 521.364 1543.3 517.112 1545.69C517.47 1558.22 517.824 1570.74 518.182 1583.27C514.045 1583.37 509.908 1583.43 505.773 1583.46C505.653 1565.89 505.533 1548.32 505.41 1530.75C508.545 1530.73 511.675 1530.68 514.805 1530.62C515.16 1533.37 515.525 1536.13 515.89 1538.89C520.046 1535.78 524.152 1533.3 528.25 1531.47C532.551 1529.55 536.816 1528.45 541.105 1528.16C551.433 1527.47 557.116 1531.72 558.162 1541.34C559.548 1554.45 560.932 1567.57 562.32 1580.68C558.155 1581.07 553.986 1581.41 549.818 1581.72C548.802 1569.58 547.787 1557.45 546.771 1545.32ZM482.25 1583.18C481.854 1580.24 481.472 1577.3 481.091 1574.37C480.661 1574.73 480.209 1575.09 479.705 1575.48C477.949 1576.82 475.824 1578.09 473.321 1579.28C470.815 1580.47 468.051 1581.42 465.028 1582.11C462.003 1582.81 458.717 1583.04 455.185 1582.79C451.395 1582.52 448.104 1581.69 445.342 1580.33C442.575 1578.97 440.503 1577.11 439.133 1574.77C437.76 1572.43 437.269 1569.68 437.632 1566.53C437.851 1564.63 438.065 1562.74 438.284 1560.84C438.754 1556.76 440.626 1553.73 443.847 1551.71C447.07 1549.7 451.283 1548.92 456.558 1549.3C464.631 1549.89 472.713 1550.32 480.796 1550.59C480.851 1549.19 480.906 1547.79 480.958 1546.39C480.997 1543.29 480.264 1541.04 478.771 1539.61C477.275 1538.18 474.318 1537.38 469.878 1537.15C466.866 1536.99 463.073 1536.91 458.492 1536.87C453.911 1536.83 449.385 1536.75 444.917 1536.62C444.825 1534.11 444.742 1531.6 444.661 1529.1C447.362 1528.92 450.351 1528.8 453.627 1528.7C456.895 1528.6 460.215 1528.56 463.587 1528.56C466.955 1528.56 470.045 1528.62 472.851 1528.75C477.218 1528.97 480.88 1529.62 483.858 1530.76C486.834 1531.89 489.065 1533.72 490.556 1536.27C492.044 1538.82 492.769 1542.29 492.694 1546.68C492.487 1558.92 492.281 1571.16 492.07 1583.4C488.799 1583.35 485.523 1583.28 482.25 1583.18ZM458.526 1556.92C455.723 1556.8 453.718 1557.27 452.497 1558.37C451.278 1559.47 450.565 1561.05 450.375 1563.13C450.273 1564.21 450.174 1565.28 450.074 1566.36C449.834 1568.94 450.393 1570.89 451.771 1572.19C453.144 1573.49 455.449 1574.26 458.675 1574.47C461.053 1574.63 463.734 1574.42 466.707 1573.82C469.677 1573.22 472.681 1572.22 475.709 1570.79C477.254 1570.06 478.721 1569.21 480.113 1568.24C480.246 1564.81 480.376 1561.39 480.512 1557.96C473.18 1557.74 465.85 1557.39 458.526 1556.92ZM410.554 1535.39C409.669 1536.02 408.685 1536.66 407.588 1537.29C407.575 1537.36 407.565 1537.43 407.549 1537.5C408.432 1538.52 409.277 1539.54 410.086 1540.57C410.893 1541.61 411.54 1542.64 412.034 1543.65C418.483 1555.82 425.463 1567.9 432.975 1579.85C428.125 1579.34 423.286 1578.78 418.447 1578.16C411.026 1565.54 404.208 1552.8 397.928 1539.98C394.673 1539.42 391.418 1538.84 388.169 1538.23C388.148 1538.85 388.135 1539.47 388.101 1540.1C387.981 1542.21 387.733 1544.18 387.341 1546.02C385.467 1554.81 383.598 1563.6 381.724 1572.4C377.519 1571.61 373.319 1570.79 369.125 1569.92C374.859 1545.66 380.589 1521.4 386.321 1497.14C389.97 1497.9 393.624 1498.61 397.289 1499.3C395.694 1506.78 394.099 1514.27 392.504 1521.76C392.04 1523.95 391.457 1526.01 390.763 1527.93C390.507 1528.64 390.207 1529.35 389.912 1530.07C393.063 1530.66 396.224 1531.23 399.385 1531.77C409.413 1522.8 419.018 1513.6 428.133 1504.17C432.192 1504.7 436.259 1505.18 440.325 1505.62C431.717 1514.98 422.67 1524.15 413.193 1533.11C412.315 1534 411.433 1534.76 410.554 1535.39ZM321.57 1558.22C321.995 1555.66 322.426 1553.1 322.859 1550.54C319.213 1551.98 315.23 1552.95 310.915 1553.42C306.096 1553.96 301.124 1553.4 296.076 1551.73C288.454 1549.21 283.894 1545.06 282.472 1539.49C281.039 1533.92 282.19 1526.88 285.794 1518.38C288.517 1511.95 291.459 1507.18 294.565 1504.02C297.676 1500.86 301.074 1499.05 304.778 1498.54C308.485 1498.03 312.627 1498.55 317.273 1500.07C320.941 1501.27 324.386 1502.84 327.636 1504.78C330.356 1506.41 332.83 1508.36 335.08 1510.62C335.365 1509.16 335.686 1507.73 336.088 1506.34C336.63 1504.46 337.246 1502.49 337.933 1500.43C339.614 1495.38 341.298 1490.32 342.978 1485.27C346.492 1486.29 350.01 1487.28 353.537 1488.23C346.058 1512.44 338.578 1536.66 331.097 1560.87C327.915 1560.01 324.741 1559.13 321.57 1558.22ZM325.451 1512.64C322.987 1511.32 320.231 1510.17 317.182 1509.19C314.133 1508.21 311.51 1507.85 309.291 1508.14C307.075 1508.43 305.021 1509.7 303.123 1511.96C301.226 1514.23 299.331 1517.72 297.454 1522.44C295.601 1527.1 294.591 1530.88 294.45 1533.78C294.304 1536.69 295.011 1538.98 296.567 1540.65C298.12 1542.32 300.414 1543.66 303.434 1544.63C305.721 1545.37 307.895 1545.79 309.944 1545.9C311.993 1546.01 314.235 1545.83 316.652 1545.34C318.628 1544.95 320.925 1544.43 323.499 1543.79C326.498 1534.77 329.497 1525.77 332.496 1516.76C329.925 1515.16 327.57 1513.77 325.451 1512.64ZM264.931 1539.15C260.987 1537.61 257.054 1536.04 253.133 1534.42C258.395 1523.29 263.655 1512.16 268.917 1501.03C270.347 1498 270.77 1495.67 270.199 1494.06C269.63 1492.44 267.972 1491.06 265.231 1489.89C262.115 1488.55 258.643 1487.85 254.778 1487.75C251.246 1487.66 246.918 1487.73 241.849 1487.9C235.791 1499.07 229.735 1510.25 223.68 1521.42C219.866 1519.63 216.066 1517.79 212.284 1515.92C221.127 1500.41 229.97 1484.9 238.814 1469.39C241.68 1470.81 244.551 1472.21 247.435 1473.58C246.355 1476.17 245.279 1478.76 244.209 1481.35C249.575 1480.51 254.564 1480.2 259.21 1480.46C264.091 1480.72 268.51 1481.68 272.529 1483.38C282.224 1487.43 285.16 1493.73 281.214 1502.66C275.784 1514.82 270.36 1526.98 264.931 1539.15ZM199.804 1509.56C196.834 1508.01 193.877 1506.43 190.927 1504.83C192.063 1502.07 193.208 1499.3 194.357 1496.55C193.78 1496.66 193.175 1496.77 192.519 1496.88C190.222 1497.25 187.625 1497.38 184.72 1497.26C181.82 1497.14 178.792 1496.69 175.66 1495.89C172.525 1495.09 169.383 1493.75 166.256 1491.88C162.902 1489.86 160.286 1487.59 158.428 1485.09C156.567 1482.59 155.601 1479.98 155.523 1477.27C155.444 1474.56 156.389 1471.9 158.326 1469.3C159.495 1467.73 160.662 1466.17 161.829 1464.6C164.342 1461.23 167.616 1459.45 171.614 1459.2C175.616 1458.95 179.907 1460.24 184.571 1463.06C191.71 1467.37 198.925 1471.51 206.197 1475.5C206.962 1474.29 207.724 1473.08 208.489 1471.88C210.099 1469.17 210.577 1466.84 209.935 1464.9C209.29 1462.95 206.982 1460.87 203.023 1458.6C200.334 1457.06 196.884 1455.21 192.684 1453.03C188.484 1450.85 184.349 1448.64 180.288 1446.41C181.478 1444.17 182.674 1441.92 183.874 1439.68C186.464 1440.8 189.288 1442.1 192.358 1443.55C195.424 1445.01 198.507 1446.52 201.611 1448.1C204.712 1449.67 207.52 1451.17 210.031 1452.6C213.933 1454.82 216.956 1457.09 219.109 1459.47C221.26 1461.84 222.369 1464.49 222.435 1467.42C222.495 1470.34 221.391 1473.73 219.086 1477.56C212.66 1488.22 206.231 1498.89 199.804 1509.56ZM182.509 1470.68C179.99 1469.26 177.897 1468.74 176.214 1469.13C174.533 1469.52 173.066 1470.58 171.828 1472.32C171.189 1473.22 170.549 1474.12 169.91 1475.02C168.373 1477.18 167.9 1479.16 168.508 1480.95C169.114 1482.73 170.847 1484.5 173.708 1486.2C175.814 1487.45 178.393 1488.52 181.429 1489.38C184.464 1490.24 187.738 1490.75 191.24 1490.9C193.034 1490.98 194.814 1490.91 196.576 1490.71C198.445 1487.75 200.311 1484.8 202.182 1481.84C195.571 1478.25 189.014 1474.53 182.509 1470.68ZM142.563 1463.51C143.101 1465.3 144.51 1466.97 146.786 1468.48C148.472 1469.6 150.164 1470.71 151.855 1471.82C150.686 1474.18 149.517 1476.53 148.358 1478.89C147.389 1478.7 146.181 1478.27 144.74 1477.59C143.302 1476.91 141.856 1476.15 140.412 1475.32C138.966 1474.49 137.763 1473.74 136.797 1473.09C132.639 1470.28 130.081 1467.05 129.134 1463.5C128.186 1459.95 129.183 1456.43 132.073 1452.97C145.888 1436.35 159.704 1419.73 173.52 1403.11C176.566 1405.28 179.628 1407.43 182.71 1409.53C169.777 1425.74 156.841 1441.94 143.899 1458.13C142.472 1459.93 142.02 1461.72 142.563 1463.51ZM132.002 1435.37C127.442 1440.64 123.007 1444.28 118.656 1446.23C114.305 1448.19 109.656 1448.47 104.739 1447C99.8238 1445.53 94.2823 1442.35 88.2319 1437.38C82.2494 1432.47 78.167 1427.74 75.964 1423.36C73.7584 1418.97 73.4426 1414.61 74.9748 1410.34C76.507 1406.06 79.8741 1401.54 85.0136 1396.75C90.1008 1392.01 94.9244 1388.87 99.4505 1387.28C103.974 1385.69 108.503 1385.67 113.07 1387.18C117.638 1388.69 122.569 1391.7 127.972 1396.14C133.44 1400.63 137.23 1404.79 139.337 1408.76C141.443 1412.73 141.879 1416.83 140.624 1421.12C139.368 1425.4 136.515 1430.15 132.002 1435.37ZM128.463 1409.98C127.338 1407.57 125.161 1405.07 121.929 1402.41C118.701 1399.76 115.754 1398.05 113.05 1397.31C110.345 1396.58 107.592 1396.87 104.765 1398.21C101.943 1399.56 98.6831 1402.02 95.0001 1405.62C91.3172 1409.21 88.8323 1412.38 87.5637 1415.11C86.2978 1417.85 86.2377 1420.48 87.4071 1422.98C88.5713 1425.48 90.8839 1428.18 94.3528 1431.03C97.8165 1433.88 100.991 1435.69 103.836 1436.48C106.678 1437.27 109.5 1436.91 112.282 1435.42C115.07 1433.93 118.173 1431.28 121.614 1427.48C125.056 1423.69 127.33 1420.42 128.46 1417.68C129.585 1414.95 129.583 1412.38 128.463 1409.98ZM100.022 1374.57C95.3238 1378.85 91.0118 1381.59 87.0521 1382.74C83.0977 1383.89 79.0832 1383.5 75.0479 1381.54C71.0151 1379.58 66.5047 1376.15 61.6132 1371.19C58.9482 1368.48 56.4738 1365.81 54.182 1363.19C51.9216 1360.6 49.9326 1358.15 48.2047 1355.84C40.0687 1362.08 31.9328 1368.31 23.7994 1374.55C20.6254 1371.11 17.4828 1367.64 14.3662 1364.12C35.4174 1348.75 56.4712 1333.37 77.5197 1318C79.8245 1320.15 81.9701 1322.2 83.959 1324.15C85.9454 1326.1 88.0596 1328.26 90.3149 1330.59C92.5648 1332.93 95.2612 1335.73 98.4273 1338.95C103.227 1343.85 106.555 1348.09 108.383 1351.82C110.204 1355.55 110.466 1359.17 109.132 1362.72C107.798 1366.27 104.775 1370.23 100.022 1374.57ZM96.7098 1352.26C95.7336 1350.08 93.8621 1347.61 91.1031 1344.8C86.4309 1340.03 82.4138 1335.82 79.0075 1332.24C70.989 1338.38 62.9731 1344.53 54.9546 1350.67C55.6959 1351.47 56.4189 1352.27 57.1759 1353.08C60.6266 1356.78 64.119 1360.43 67.6454 1364.03C70.621 1366.95 73.2964 1368.98 75.6456 1370.15C77.9922 1371.31 80.3622 1371.53 82.7427 1370.83C85.1206 1370.12 87.8065 1368.45 90.803 1365.84C93.8569 1363.18 95.8432 1360.79 96.7777 1358.68C97.7121 1356.57 97.686 1354.43 96.7098 1352.26Z" stroke="white" stroke-width="8" mask="url(#path-15-outside-1_115_41)"/>
<defs>
<clipPath id="clip0_115_41">
<rect width="1006" height="479" fill="white" transform="translate(1 906)"/>
</clipPath>
<clipPath id="clip1_115_41">
<rect width="300" height="230" fill="white" transform="translate(669 676)"/>
</clipPath>
</defs>
</svg>